<svg id="Layer_1" data-name="Layer 1" xmlns="http://www.w3.org/2000/svg" viewBox="0 0 57 92">
  <title>extensions-icon</title>
  <path d="M59.4,57.7a22.8,22.8,0,0,0-1.6-7.4c-3.9-9.4-14.2-16.2-26.4-16.2S9,40.9,5.1,50.3a20.4,20.4,0,0,0-1.6,7.4,4.1,4.1,0,0,0,0,1.8c.1,2.6.5,29.3,1.4,31.6l.2-31.6h0V57.7c.5-12.1,12.2-21.9,26.3-21.9s25.8,9.8,26.4,21.9v1.8h0V90.1c1-2.3,1.4-28,1.5-30.6V57.7Z" transform="translate(-2.9 -1.6)" stroke="#000" stroke-miterlimit="10"/>
  <g>
    <path d="M28.7,77.1A12.7,12.7,0,0,1,15.9,64.4V32.6c0-9.2,7.5-29.5,15.5-29.5S46.9,23.4,46.9,32.6V64.4A12.7,12.7,0,0,1,34.2,77.1Z" transform="translate(-2.9 -1.6)" fill="#fff"/>
    <path d="M31.4,4.6c2.8,0,6.4,4,9.3,10.3s4.7,13.9,4.7,17.7V64.4A11.2,11.2,0,0,1,34.2,75.6H28.7A11.3,11.3,0,0,1,17.4,64.4V32.6c0-3.8,1.6-11.1,4.7-17.7S28.7,4.6,31.4,4.6m0-3c-9.4,0-17,21.6-17,31V64.4A14.2,14.2,0,0,0,28.7,78.6h5.5A14.1,14.1,0,0,0,48.4,64.4V32.6c0-9.4-7.6-31-17-31Z" transform="translate(-2.9 -1.6)"/>
  </g>
</svg>
