<svg id="Layer_1" data-name="Layer 1" xmlns="http://www.w3.org/2000/svg" viewBox="0 0 57 94">
  <title>extensions-icon_round</title>
  <path d="M59.4,59.7a22.8,22.8,0,0,0-1.6-7.4c-3.9-9.4-14.2-16.2-26.4-16.2S9,42.9,5.1,52.3a20.4,20.4,0,0,0-1.6,7.4,4.1,4.1,0,0,0,0,1.8c.1,2.6.5,29.3,1.4,31.6l.2-31.6h0V59.7c.5-12.1,12.2-21.9,26.3-21.9s25.8,9.8,26.4,21.9v1.8h0V92.1c1-2.3,1.4-28,1.5-30.6V59.7Z" transform="translate(-2.9 -1.6)" stroke="#000" stroke-miterlimit="10"/>
  <g>
    <path d="M32,79.1A16.2,16.2,0,0,1,15.9,63V18.6a15.5,15.5,0,0,1,31,0V64.2A14.9,14.9,0,0,1,32,79.1Z" transform="translate(-2.9 -1.6)" fill="#fff"/>
    <path d="M31.4,4.6a14,14,0,0,1,14,14V64.2A13.4,13.4,0,0,1,32,77.6,14.6,14.6,0,0,1,17.4,63V18.6a14,14,0,0,1,14-14m0-3a17,17,0,0,0-17,17V63A17.6,17.6,0,0,0,32,80.6,16.4,16.4,0,0,0,48.4,64.2V18.6a17,17,0,0,0-17-17Z" transform="translate(-2.9 -1.6)"/>
  </g>
</svg>
