<svg id="Layer_1" data-name="Layer 1" xmlns="http://www.w3.org/2000/svg" viewBox="0 0 57 66">
  <title>natural-icon</title>
  <path d="M59.4,32.3a22.8,22.8,0,0,0-1.6-7.4C53.9,15.4,43.6,8.7,31.4,8.7S9,15.4,5.1,24.9a20.4,20.4,0,0,0-1.6,7.4,4.1,4.1,0,0,0,0,1.8c.1,2.5.5,29.3,1.4,31.6l.2-31.6h0V32.3c.5-12.1,12.2-21.9,26.3-21.9s25.8,9.8,26.4,21.9v1.8h0V64.7c1-2.3,1.4-28.1,1.5-30.6V32.3Z" transform="translate(-2.9 -2.2)" stroke="#000" stroke-miterlimit="10"/>
  <g>
    <path d="M30.8,52c-8.2,0-15.2-4-15.2-8.7V10.2c0-2.2,3.3-6.8,7.1-6.8H40.2c3.8,0,7.1,4.6,7.1,6.8V42.5C47.3,47.7,39.7,52,30.8,52Z" transform="translate(-2.9 -2.2)" fill="#fff"/>
    <path d="M40.2,4.5c3.1,0,5.9,4.1,5.9,5.7V42.5c0,4.4-7.2,8.4-15.3,8.4s-14-3.6-14-7.6V10.2c0-1.6,2.8-5.7,5.9-5.7H40.2m0-2.3H22.7c-4.6,0-8.3,5.2-8.3,8V43.3c0,5.5,7.4,9.9,16.4,9.9s17.6-4.8,17.6-10.7V10.2c0-2.8-3.7-8-8.2-8Z" transform="translate(-2.9 -2.2)"/>
  </g>
</svg>
