<svg id="Layer_1" data-name="Layer 1" xmlns="http://www.w3.org/2000/svg" xmlns:xlink="http://www.w3.org/1999/xlink" viewBox="0 0 1326.8 470.8">
  <style>
    /* <![CDATA[ */
    @keyframes Instagram {
      100% {
      stroke-dashoffset: 0;
      }
    }

    #I1 {
      stroke-dasharray: 1000;
      stroke-dashoffset: 1000;
      stroke-width: 50;
      animation: Instagram .6s linear forwards;
    }

    #NSTAGRAM1 {
      stroke-dasharray: 1000;
      stroke-dashoffset: 1000;
      stroke-width: 50;
      animation: Instagram 1s linear forwards .5s;
    }

    #NSTAGRAM2 {
      stroke-dasharray: 2000;
      stroke-dashoffset: 2000;
      stroke-width: 50;
      animation: Instagram 2s linear forwards .8s;
    }

    #NSTAGRAM3 {
      stroke-dasharray: 1500;
      stroke-dashoffset: 1500;
      stroke-width: 50;
      animation: Instagram 1s linear forwards 2s;
    }

    #NSTAGRAM4 {
      stroke-dasharray: 1000;
      stroke-dashoffset: 1000;
      stroke-width: 50;
      animation: Instagram 1s linear forwards 2.2s;
    }

    #NSTAGRAM5 {
      stroke-dasharray: 1000;
      stroke-dashoffset: 1000;
      stroke-width: 50;
      animation: Instagram 1s linear forwards 2.5s;
    }

    #NSTAGRAM6 {
      stroke-dasharray: 1500;
      stroke-dashoffset: 1500;
      stroke-width: 50;
      animation: Instagram 1s linear forwards 3s;
    }

    #NSTAGRAM7 {
      stroke-dasharray: 1500;
      stroke-dashoffset: 1500;
      stroke-width: 50;
      animation: Instagram 1s linear forwards 4s;
    }

    #NSTAGRAM8 {
      stroke-dasharray: 1500;
      stroke-dashoffset: 1500;
      stroke-width: 50;
      animation: Instagram 1s linear forwards 2.4s;
    }
    /* ]]> */
  </style>
  <defs>
    <clipPath id="clip-path" transform="translate(-30.7 -151)">
      <path id="I" d="M167.3,174.3a18.6,18.6,0,0,0-3.5-5.4,20.1,20.1,0,0,0-5.1-3.5,16.2,16.2,0,0,0-6.1-1.2,134.6,134.6,0,0,0-24.6,2.4,118.4,118.4,0,0,0-25.4,7.9,112.9,112.9,0,0,0-23.9,14.3,96,96,0,0,0-19.8,21.3,106.3,106.3,0,0,0-13.6,29.2q-5.1,16.8-5.1,37.8a118.9,118.9,0,0,0,11.5,51.4,85,85,0,0,0,10.9,17.4c4,4.9,7.7,8.5,11.3,10.8a10.9,10.9,0,0,0,8.9,2.2,17.4,17.4,0,0,0,8.5-4.6,30.3,30.3,0,0,0,8.9-21.4,19.3,19.3,0,0,0-.5-4.2,2.3,2.3,0,0,0-4.4-.5,2.4,2.4,0,0,1-2.3,1.3c-1.3,0-3.1-1.2-5.5-3.7a46.7,46.7,0,0,1-7-10.4,81.9,81.9,0,0,1-6.1-16.5,85.4,85.4,0,0,1-2.5-21.8c0-12.6,1.7-23.7,5.2-33.4a74.1,74.1,0,0,1,14.1-24.6,65.2,65.2,0,0,1,20.9-16,80.2,80.2,0,0,1,25.5-7.7V444.1a6.8,6.8,0,0,0,1.8,4.4,22.4,22.4,0,0,0,4.7,3.6,28.4,28.4,0,0,0,6.4,2.5,24.2,24.2,0,0,0,7,1,15.1,15.1,0,0,0,7.8-2c2.3-1.4,3.4-3.8,3.4-7.2V181A16.7,16.7,0,0,0,167.3,174.3Z" fill="none"/>
    </clipPath>
    <clipPath id="clip-path-2" transform="translate(-30.7 -151)">
      <path id="NSTAGRAM" d="M1335.5,384.7a16.9,16.9,0,0,0-3.3-5.3,14.7,14.7,0,0,0-4.5-3.8,9,9,0,0,0-4.8-1.5,7.6,7.6,0,0,0-5.7,2.8c-1.8,1.9-3.1,5-3.8,9.1s-2.1,9.2-3.6,14.2a82.9,82.9,0,0,1-5.3,14,38.2,38.2,0,0,1-7.7,10.7,14.2,14.2,0,0,1-10.4,4.3,7.8,7.8,0,0,1-6-2.3,15.5,15.5,0,0,1-3-5.5,27.2,27.2,0,0,1-1.2-6.2c-.1-2-.2-3.4-.2-4.4V328a76.3,76.3,0,0,0-1.3-14.1,42.8,42.8,0,0,0-4.9-13.1,28.2,28.2,0,0,0-9.8-9.6c-4.2-2.5-9.5-3.7-16-3.7a29,29,0,0,0-12.8,2.9,47.6,47.6,0,0,0-11.3,8,65.2,65.2,0,0,0-9.7,12,116.1,116.1,0,0,0-8.3,14.8,78.6,78.6,0,0,0-1.9-13.4,39.1,39.1,0,0,0-5.2-12.2,27.1,27.1,0,0,0-9.6-8.8c-3.9-2.2-8.9-3.3-14.9-3.3a29,29,0,0,0-12.8,2.9,45.3,45.3,0,0,0-11.3,8.1,72.5,72.5,0,0,0-9.8,12.3,122.4,122.4,0,0,0-8.5,15.2V309.2a16.2,16.2,0,0,0-5.8-12.4c-3.9-3.5-9.1-5.2-15.7-5.2a13.9,13.9,0,0,0-7.5,1.9,5.3,5.3,0,0,0-3.1,4.8,13.4,13.4,0,0,0,.9,4.6,27.5,27.5,0,0,1,.9,8.3v69.3a29.6,29.6,0,0,0-1.8,5.5c-.9,4.5-2.1,9.2-3.4,14.2a82.9,82.9,0,0,1-5.3,14,40.1,40.1,0,0,1-7.6,10.7,14.4,14.4,0,0,1-10.5,4.3,11.1,11.1,0,0,1-6.1-1.6,12.3,12.3,0,0,1-4.2-4.3,20.3,20.3,0,0,1-2.4-5.9,29.1,29.1,0,0,1-.8-6.6v-66a15.9,15.9,0,0,0-5.8-12.4c-3.9-3.5-9.2-5.2-15.9-5.2a14.1,14.1,0,0,0-7.3,1.8,5.7,5.7,0,0,0-3,5,7.5,7.5,0,0,0,.2,2.1c.1.7.3,1.5.5,2.4s.3,2,.5,3.3a33.8,33.8,0,0,1,.3,4.9v61.8a47.4,47.4,0,0,1-8.8,14.6,17.4,17.4,0,0,1-13.6,6.1,19.4,19.4,0,0,1-16.7-8.5q-6-8.6-6-24.3,0-21.7,6-37.5c4.1-10.4,9.3-19.1,15.6-25.9a60.7,60.7,0,0,1,21.2-15.3,59.1,59.1,0,0,1,23.1-5,39.4,39.4,0,0,1,6,.4,38.2,38.2,0,0,0,5.7.4,4.1,4.1,0,0,0,4-2.1c.7-1.3,1.1-3.7,1.1-7.1q0-7.8-5.1-12.3c-3.4-3-7.8-4.5-13.3-4.5a88.9,88.9,0,0,0-35.5,7.4,93.9,93.9,0,0,0-30.4,21.4A109.9,109.9,0,0,0,957,350.2c-5.3,13.3-8,28.3-8,45a91,91,0,0,0,.4,9.1,73.3,73.3,0,0,1-4.1,9.9,35.8,35.8,0,0,1-8.2,10.7,17.2,17.2,0,0,1-11.8,4.3,14.6,14.6,0,0,1-7.1-1.7,15.3,15.3,0,0,1-5-4.8,22,22,0,0,1-2.9-7,30.2,30.2,0,0,1-1-8,160.2,160.2,0,0,1,1.4-20.4c.9-7,2-13.7,3.3-20.2s2.7-12.8,4.3-18.7,3-11.2,4.3-15.7,2.4-8.4,3.3-11.4a31.7,31.7,0,0,0,1.4-5.6,11.2,11.2,0,0,0-1.7-7.5,37.8,37.8,0,0,0-5.5-7.3,41.9,41.9,0,0,0-6.8-5.6c-2.3-1.4-4-2.1-5.2-2.1h-24l-3.9-.2-5.8-.5-8.3-.9a40.2,40.2,0,0,0-4.5-10.2,27.8,27.8,0,0,0-6.1-6.6,19.7,19.7,0,0,0-7.3-3.5,27.3,27.3,0,0,0-7.3-1,21.7,21.7,0,0,0-7.6,1.3,18.1,18.1,0,0,0-6.5,3.7,19.4,19.4,0,0,0-4.4,5.8,17.3,17.3,0,0,0-1.6,7.6,23.8,23.8,0,0,0,4.9,15.1A38.2,38.2,0,0,0,838,314.3c-.2,5.1-.4,10.8-.6,17.3s-.6,12.9-1.1,19.3-1.1,12.6-1.9,18.4a107.4,107.4,0,0,1-2.7,14.8,4.3,4.3,0,0,0-.1.5c-.2.4-.3.9-.5,1.4A160.8,160.8,0,0,1,816,422.2a166.6,166.6,0,0,1-20.1,27.5V340.9a16.2,16.2,0,0,0-5.7-12.6c-3.9-3.5-9.1-5.2-15.8-5.2A13.8,13.8,0,0,0,767,325a5.7,5.7,0,0,0-3.1,4.9,13.9,13.9,0,0,0,.9,4.7,31.3,31.3,0,0,1,.8,8.2V388a97.1,97.1,0,0,1-3.2,12.6,50.4,50.4,0,0,1-5.4,12,33.2,33.2,0,0,1-7.8,9.1,16.3,16.3,0,0,1-10.5,3.6,19.5,19.5,0,0,1-16.7-8.6c-4-5.7-6-13.8-6-24.2q0-21.7,6-37.5c4.1-10.4,9.3-19.1,15.6-26a61.7,61.7,0,0,1,21.2-15.2,59.1,59.1,0,0,1,23.1-5,39.4,39.4,0,0,1,6,.4,38.2,38.2,0,0,0,5.7.4,4.1,4.1,0,0,0,4-2.1c.7-1.3,1.1-3.7,1.1-7.1,0-5.3-1.7-9.5-5.1-12.4s-7.8-4.4-13.3-4.4a88.9,88.9,0,0,0-35.5,7.4,93.9,93.9,0,0,0-30.4,21.4,107.6,107.6,0,0,0-21.3,33.9c-5.3,13.3-8,28.3-8,45a93.3,93.3,0,0,0,.7,12,70.7,70.7,0,0,1-4.3,10.9,40.1,40.1,0,0,1-7.6,10.7,14.6,14.6,0,0,1-10.5,4.3,11.7,11.7,0,0,1-6.2-1.6,14.4,14.4,0,0,1-4.2-4.3,23.4,23.4,0,0,1-2.3-5.9,29.1,29.1,0,0,1-.8-6.6v-66a15.9,15.9,0,0,0-5.8-12.4c-4-3.5-9.2-5.2-15.9-5.2a14.1,14.1,0,0,0-7.3,1.8,5.7,5.7,0,0,0-3,5,7.5,7.5,0,0,0,.2,2.1c.1.7.3,1.5.4,2.4s.4,2,.6,3.3a33.8,33.8,0,0,1,.3,4.9v61.8a47.4,47.4,0,0,1-8.8,14.6,17.4,17.4,0,0,1-13.7,6.1,19.3,19.3,0,0,1-16.6-8.5q-6-8.6-6-24.3,0-21.7,6-37.5c4.1-10.4,9.2-19.1,15.6-25.9a60.7,60.7,0,0,1,21.2-15.3,59,59,0,0,1,23-5,39.9,39.9,0,0,1,6.1.4,37.3,37.3,0,0,0,5.7.4,4.1,4.1,0,0,0,4-2.1c.7-1.3,1.1-3.7,1.1-7.1q0-7.8-5.1-12.3c-3.4-3-7.8-4.5-13.3-4.5a88.9,88.9,0,0,0-35.5,7.4,93.9,93.9,0,0,0-30.4,21.4,106.3,106.3,0,0,0-21.3,33.9c-5.3,13.3-8,28.3-8,45a89.7,89.7,0,0,0,.4,9.1,73.1,73.1,0,0,1-4,9.9,38.2,38.2,0,0,1-7.7,10.7,14.2,14.2,0,0,1-10.4,4.3,12.5,12.5,0,0,1-10-4.3c-2.5-2.8-3.7-7.5-3.7-14.1V284h34.5c12.3-.1,26.5-.3,42.5-.7,1.7,0,3.2-1,4.6-2.9a21.4,21.4,0,0,0,3.2-7,43.6,43.6,0,0,0,1.6-8.3,28.1,28.1,0,0,0-.1-7.2c-.3-2-1-3.2-2.1-3.7s-2.6.2-4.4,2.1c-13.7.7-27.4,1.1-41,1.4s-26.5.4-38.8.4V187.8a16.1,16.1,0,0,0-5.8-12.4c-3.8-3.5-9.1-5.2-15.7-5.2l-4.4.3a25.9,25.9,0,0,0-4.2.9,9.9,9.9,0,0,0-3.1,1.4,2.2,2.2,0,0,0-1.2,1.9,2.8,2.8,0,0,0,.7,1.9,19.5,19.5,0,0,1,1.4,2.3,26.9,26.9,0,0,1,1.3,4,25.6,25.6,0,0,1,.7,6.9v67.8l-14.8-.3c-4.5-.1-8.3-.2-11.4-.5s-7-.3-10-.6a5,5,0,0,0-5.3,4.2,17.5,17.5,0,0,0,.4,9.3,23.4,23.4,0,0,0,5,9.3c2.5,2.8,5.2,4.2,8.3,4.2l7.3.4,8.7.3h11.8v97.5c-.6,1.3-1.3,2.8-1.9,4.5a62,62,0,0,1-4.4,9.4,37.6,37.6,0,0,1-6.7,8.3,44.4,44.4,0,0,1-9.4,6.8,47.6,47.6,0,0,1-12.4,4.3,40.6,40.6,0,0,0,1.5-7.1,60.9,60.9,0,0,0,.5-7.2c0-9.5-1.4-17.8-4.1-24.8a105.9,105.9,0,0,0-10.5-20c-4.2-6.2-8.9-12.6-14-18.9a169.3,169.3,0,0,1-14.6-22.1,24.1,24.1,0,0,1,1.6-3.5q1.5-2.8,3.3-6.6c1.1-2.5,2.2-5.3,3.2-8.2a27.2,27.2,0,0,0,1.4-8.9c0-5.5-1.2-9.8-3.6-13.1s-6-4.9-10.8-4.9c-2.8,0-6,1-9.9,3a57.4,57.4,0,0,0-11.1,7.8,51.8,51.8,0,0,0-9.2,10.2,18.6,18.6,0,0,0-3.8,10.7,28.7,28.7,0,0,0,1.7,9.7,56.3,56.3,0,0,0,4.7,9.1l-11,32.1a253.9,253.9,0,0,0-8.2,28.2,25.5,25.5,0,0,0-1.8,5.7c-.8,4.1-1.9,8.4-3.1,13H344c-2.2,0-4.4,1.2-6.4,3.6a20.6,20.6,0,0,0-4.3,9.3,26.2,26.2,0,0,0,.6,11l-2,2.1a14.2,14.2,0,0,1-10.4,4.3,7.7,7.7,0,0,1-6-2.3,14.1,14.1,0,0,1-3-5.5,22.7,22.7,0,0,1-1.2-6.2c-.1-2-.2-3.4-.2-4.4V328a69,69,0,0,0-1.5-14.1,38.7,38.7,0,0,0-5.2-13.1,28.3,28.3,0,0,0-10.1-9.6c-4.3-2.5-9.8-3.7-16.4-3.7a31.7,31.7,0,0,0-13.8,3,47.7,47.7,0,0,0-11.9,8.4,72.7,72.7,0,0,0-10.4,12.6,139.3,139.3,0,0,0-8.9,15.7v-18a15.9,15.9,0,0,0-5.8-12.4c-3.8-3.5-9.1-5.2-15.7-5.2a13.6,13.6,0,0,0-7.4,1.9c-2.1,1.2-3.2,2.8-3.2,4.8a13.4,13.4,0,0,0,.9,4.6,27.5,27.5,0,0,1,.9,8.3V438c0,3.8.6,6.8,1.9,9.1a14.3,14.3,0,0,0,4.7,5.3,16.2,16.2,0,0,0,6.2,2.5,29.8,29.8,0,0,0,6.4.7c2.8,0,5-.5,6.5-1.7a9.4,9.4,0,0,0,3.3-4.1,15.3,15.3,0,0,0,1.2-5.4c.1-2,.1-4,.1-6V380a89,89,0,0,1,5.8-23.8A116.5,116.5,0,0,1,249.3,335a84.3,84.3,0,0,1,12.3-15.2c4.2-4,7.7-5.9,10.6-5.9a6,6,0,0,1,4.6,1.8,13,13,0,0,1,2.5,5,30.3,30.3,0,0,1,1.1,7.3c.1,2.7.2,5.6.2,8.8v81.3a45.2,45.2,0,0,0,2.2,14.4,35.2,35.2,0,0,0,6.7,12,32.2,32.2,0,0,0,10.5,8.1,32.5,32.5,0,0,0,14.2,3q12.9,0,22.5-6a62.9,62.9,0,0,0,10.3-8.2,49.9,49.9,0,0,0,4.8,3.3,85.1,85.1,0,0,0,10.9,5.3,70.2,70.2,0,0,0,12.5,4,51.6,51.6,0,0,0,12.8,1.6,58.1,58.1,0,0,0,22.2-4,61.8,61.8,0,0,0,17.1-10.3c12.5-.9,23-3.1,31.4-6.5a90.2,90.2,0,0,0,19.9-11.1,77.1,77.1,0,0,0,1.8,7.9,36.9,36.9,0,0,0,7.7,13.7,29,29,0,0,0,11.6,7.9,43.8,43.8,0,0,0,14.8,2.4c8.6,0,16-2,22.4-6a64.2,64.2,0,0,0,16.3-14.9,40.5,40.5,0,0,0,2.3,3.4,43.1,43.1,0,0,0,15,12.8,43.8,43.8,0,0,0,20.6,4.7,39.5,39.5,0,0,0,19.8-4.8,55.8,55.8,0,0,0,14.6-11.6,34.3,34.3,0,0,0,12.3,11.9,36.1,36.1,0,0,0,18.4,4.5,42.2,42.2,0,0,0,22.6-6,63.2,63.2,0,0,0,16.5-15.3l1-1.4.9,1.3a42.8,42.8,0,0,0,35.6,17.5,40.2,40.2,0,0,0,18.7-4.2,54.5,54.5,0,0,0,14.1-10.3v42.1c-6.6,5.8-12.9,11.6-18.9,17.3a118.5,118.5,0,0,0-15.9,18.2A90.3,90.3,0,0,0,720,536.3a83.3,83.3,0,0,0-4,27,55.6,55.6,0,0,0,2.8,18,49.3,49.3,0,0,0,7.9,14.7,38.6,38.6,0,0,0,12.2,9.8,33.3,33.3,0,0,0,15.4,3.7,41.1,41.1,0,0,0,15.2-3,33.3,33.3,0,0,0,13.3-9.7c4-4.5,7.1-10.3,9.5-17.6s3.6-16.1,3.6-26.6V483.4c5.5-4.7,11-9.8,16.5-15.4a168.3,168.3,0,0,0,15.8-18.8,174.9,174.9,0,0,0,26.2-54.8,4.7,4.7,0,0,0,.3-1.7c1.5-5.2,2.8-10.7,3.9-16.6s2.2-13.8,3-20.6,1.4-13.1,1.7-19.1.5-11,.7-14.9h35a397.4,397.4,0,0,0-15,47.6,173.8,173.8,0,0,0-5.2,41c0,8.8,1.3,16.2,3.8,22a39.4,39.4,0,0,0,9.8,13.9,34.6,34.6,0,0,0,13.3,7.5,52.3,52.3,0,0,0,14.4,2.1c8.6,0,16.1-2,22.4-6a60.9,60.9,0,0,0,16.2-15l2.4,3.5a42.8,42.8,0,0,0,35.6,17.5,39.5,39.5,0,0,0,19.8-4.8,54.2,54.2,0,0,0,14.6-11.6,34.3,34.3,0,0,0,12.3,11.9,36.1,36.1,0,0,0,18.4,4.5,42.2,42.2,0,0,0,22.6-6,67.5,67.5,0,0,0,13.2-11.2,18.2,18.2,0,0,0,1.8,8.7,15.2,15.2,0,0,0,4.7,5.3,17.4,17.4,0,0,0,6.3,2.5,28.9,28.9,0,0,0,6.3.7c2.9,0,5.1-.5,6.6-1.7a9.4,9.4,0,0,0,3.3-4.1,15.3,15.3,0,0,0,1.2-5.4c0-2,.1-4,.1-6V380a91.3,91.3,0,0,1,5.1-23.8,122.3,122.3,0,0,1,9.8-21.2,78.9,78.9,0,0,1,11.3-15.2c3.9-4,7.2-5.9,9.9-5.9a4.9,4.9,0,0,1,4,1.8,12.9,12.9,0,0,1,2.3,5,36.8,36.8,0,0,1,1,7.3c.2,2.7.3,5.6.3,8.8V438a19.5,19.5,0,0,0,1.9,9.1,14.3,14.3,0,0,0,4.7,5.3,17.6,17.6,0,0,0,6.2,2.5,29.8,29.8,0,0,0,6.4.7c2.9,0,5-.5,6.5-1.7a9.7,9.7,0,0,0,3.4-4.1,13.3,13.3,0,0,0,1.1-5.4c.1-2,.1-4,.1-6V380a91.3,91.3,0,0,1,5.1-23.8,130.2,130.2,0,0,1,9.8-21.2,71.5,71.5,0,0,1,11.3-15.2c3.9-4,7.3-5.9,10-5.9a4.9,4.9,0,0,1,4,1.8,14.5,14.5,0,0,1,2.3,5,37.3,37.3,0,0,1,.9,7.3c.2,2.7.2,5.6.2,8.8v81.3a45.3,45.3,0,0,0,2.3,14.4,35,35,0,0,0,6.6,12,33.7,33.7,0,0,0,10.6,8.1,31.9,31.9,0,0,0,14.2,3c8.6,0,16-2,22.4-6a63.2,63.2,0,0,0,16.5-15.3,89.4,89.4,0,0,0,11.2-20.1,198.9,198.9,0,0,0,7.1-20.9,5.4,5.4,0,0,0,.4-1.8v-1A13.6,13.6,0,0,0,1335.5,384.7ZM414.6,411.6a43.2,43.2,0,0,1-6.1,10.4,43.6,43.6,0,0,1-11.2-1.7,98.9,98.9,0,0,1-12.6-4.3c-4.3-1.7-8.6-3.6-12.9-5.5l-5-2.3a148.7,148.7,0,0,0,4.7-14.9,3.1,3.1,0,0,0,.2-.8,13.2,13.2,0,0,0,1-3q3.9-14.2,7.5-25.5a239.1,239.1,0,0,1,8.2-22.7c3.5,3.5,7,7.2,10.4,11.2a83.6,83.6,0,0,1,9.3,12.8,67.1,67.1,0,0,1,6.7,14.9,56.7,56.7,0,0,1,2.5,17.4A36,36,0,0,1,414.6,411.6Zm351,141v8.2a71.7,71.7,0,0,1-.8,10.4,25.2,25.2,0,0,1-3.3,9.1,7.7,7.7,0,0,1-7.2,3.9c-3.3,0-5.8-2.1-7.6-6.3a40.6,40.6,0,0,1-2.8-15.8q0-17.9,6-30.3a81.1,81.1,0,0,1,15.7-22Z" fill="none"/>
    </clipPath>
  </defs>
  <title>Instagram</title>
  <g id="I_MASK">
    <g clip-path="url(#clip-path)">
      <path id="I1" d="M104,362S25,312,69,220c34-45,83-40,83-40V472" transform="translate(-30.7 -151)" fill="none" stroke="#EB008B" stroke-miterlimit="10"/>
    </g>
  </g>
  <g id="INSTAGRAM_MASK">
    <g clip-path="url(#clip-path-2)">
      <line id="NSTAGRAM1" x1="186.3" y1="316" x2="186.3" y2="129" fill="none" stroke="#EB008B" stroke-miterlimit="10"/>
      <path id="NSTAGRAM2" d="M217,368s60-112,77-53c10,59-20,177,55,102,18-31,58-154,36-124s4,19,19,44c38,28,52,176-78,64,0,0,102,76,163-11,3-23,3-239,3-239" transform="translate(-30.7 -151)" fill="none" stroke="#EB008B" stroke-miterlimit="10"/>
      <path id="NSTAGRAM3" d="M489,390s4,106,68,18c3-41,6-118,110-108" transform="translate(-30.7 -151)" fill="none" stroke="#EB008B" stroke-miterlimit="10"/>
      <path id="NSTAGRAM4" d="M557,408s20,65,73,14V321" transform="translate(-30.7 -151)" fill="none" stroke="#EB008B" stroke-miterlimit="10"/>
      <path id="NSTAGRAM5" d="M630,422s25,51,68-11c0,0-12-125,108-114" transform="translate(-30.7 -151)" fill="none" stroke="#EB008B" stroke-miterlimit="10"/>
      <path id="NSTAGRAM6" d="M698,411s28,56,71,8c20-29,7-105,7-105s36,382-42,262c-33-54,48-90,72-119s56-77,45-170c-20-29-27,40,59,23,0,0-56,216,53,102,0,0-13-126,112-113" transform="translate(-30.7 -151)" fill="none" stroke="#EB008B" stroke-miterlimit="10"/>
      <path id="NSTAGRAM7" d="M963,412s82,113,73.4-94.6c0,0-8.4,195.6,62.6,99.6,24-46,10-137,10-137l4,189s-1-179,64-166c12,21,9,166,9,166s-18-152,63-166c12,18-3,266,88,66" transform="translate(-30.7 -151)" fill="none" stroke="#EB008B" stroke-miterlimit="10"/>
      <line id="NSTAGRAM8" x1="396.3" y1="118" x2="574.3" y2="118" fill="none" stroke="#EB008B" stroke-miterlimit="10"/>
    </g>
  </g>
</svg>
