<svg id="Layer_1" data-name="Layer 1" xmlns="http://www.w3.org/2000/svg" viewBox="0 0 64.5 133">
  <title>manicures-icon</title>
  <path d="M59.4,100.4A22.8,22.8,0,0,0,57.8,93c-3.9-9.5-14.2-16.2-26.4-16.2S9,83.5,5.1,93a20.4,20.4,0,0,0-1.6,7.4,4.1,4.1,0,0,0,0,1.8c.1,2.6.5,29.3,1.4,31.6l.2-31.6h0v-1.8c.5-12.1,12.2-21.9,26.3-21.9s25.8,9.8,26.4,21.9v1.8h0v30.6c1-2.3,1.4-28,1.5-30.6v-1.8Z" transform="translate(-2.9 -3.3)" stroke="#000" stroke-miterlimit="10"/>
  <g>
    <path d="M30.8,119.8A14.9,14.9,0,0,1,15.9,105V50.6a6.8,6.8,0,0,1,6.8-6.8H40.2a6.7,6.7,0,0,1,6.7,6.8v53.1A16.1,16.1,0,0,1,30.8,119.8Z" transform="translate(-2.9 -3.3)" fill="#fff"/>
    <path d="M40.2,45.3a5.2,5.2,0,0,1,5.2,5.3v53.1a14.6,14.6,0,0,1-14.6,14.6A13.4,13.4,0,0,1,17.4,105V50.6a5.3,5.3,0,0,1,5.3-5.3H40.2m0-3H22.7a8.3,8.3,0,0,0-8.3,8.3V105a16.4,16.4,0,0,0,16.4,16.3,17.6,17.6,0,0,0,17.6-17.6V50.6a8.3,8.3,0,0,0-8.2-8.3Z" transform="translate(-2.9 -3.3)"/>
  </g>
  <path d="M44.5,71.4s-14.1-12-7.7-29.6c0,0,3.5-7.8,10.5-5.7S51.6,46,51.6,46,48,58,61.4,60.8a8.4,8.4,0,0,1-10.5,0s-2.9,3.5,4.2,7.8c0,0-9.9-.7-12-9.2C43.1,59.4,40.3,64.3,44.5,71.4Z" transform="translate(-2.9 -3.3)"/>
  <rect x="41.2" y="17.1" width="33.5" height="4.47" transform="translate(11.8 59.2) rotate(-63.4)"/>
</svg>
