<svg id="Layer_1" data-name="Layer 1" xmlns="http://www.w3.org/2000/svg" xmlns:xlink="http://www.w3.org/1999/xlink" viewBox="0 0 1202.6 379">
  <style>
    /* <![CDATA[ */
    @keyframes services {
      100% {
      stroke-dashoffset: 0;
      }
    }

    #S1 {
      stroke-dasharray: 1000;
      stroke-dashoffset: 1000;
      stroke-width: 70;
      animation: services .6s linear forwards;
    }

    #ERV1 {
      stroke-dasharray: 2000;
      stroke-dashoffset: 2000;
      stroke-width: 70;
      animation: services 1s linear forwards .4s;
    }

    #ICES1 {
      stroke-dasharray: 2500;
      stroke-dashoffset: 2500;
      stroke-width: 60;
      animation: services 2s linear forwards 1s;
    }

    #ICES2 {
      stroke-dasharray: 2500;
      stroke-dashoffset: 2500;
      stroke-width: 70;
      animation: services 2s linear forwards 1.5s;
    }

    #DOT1 {
      stroke-dasharray: 1000;
      stroke-dashoffset: 1000;
      stroke-width: 70;
      animation: services .6s linear forwards 3s;
    }
    /* ]]> */
  </style>
  <defs>
    <clipPath id="clip-path" transform="translate(-96.4 -123.3)">
      <path d="M1266.5,403a28.7,28.7,0,0,0-3.8-6.2,23.3,23.3,0,0,0-5.5-4.9,11.7,11.7,0,0,0-6-1.9,7.4,7.4,0,0,0-5.7,3c-1.7,1.9-3.3,5.1-5,9.5a72.1,72.1,0,0,1-5.1,10.9,44.3,44.3,0,0,1-7.8,9.7,50.1,50.1,0,0,1-25.3,12.8,64.3,64.3,0,0,0,1.7-8.1,61.8,61.8,0,0,0,.6-8.5q0-16.5-4.8-28.8a116.6,116.6,0,0,0-12.2-23.2c-4.9-7.3-10.3-14.7-16.2-22.1a197.6,197.6,0,0,1-17.1-25.7,33.6,33.6,0,0,1,1.9-4.1c1.2-2.1,2.4-4.6,3.8-7.6a76.8,76.8,0,0,0,3.7-9.6,30.6,30.6,0,0,0,1.8-10.3c0-6.4-1.5-11.4-4.3-15.2s-7-5.7-12.6-5.7c-3.2,0-7,1.2-11.5,3.5a66.8,66.8,0,0,0-12.9,9,59.8,59.8,0,0,0-10.7,11.9c-3,4.3-4.4,8.5-4.4,12.4a30.6,30.6,0,0,0,2,11.3,59.6,59.6,0,0,0,5.5,10.6l-12.9,37.4q-5,14.3-8.1,26.7a21.9,21.9,0,0,0-1.3,4.3,118.8,118.8,0,0,1-6.2,21.2l-.9,2.2q-3.9,0-7.5,4.2a23.4,23.4,0,0,0-4.9,10.8,26.3,26.3,0,0,0-.4,4.9,53.6,53.6,0,0,1-13.6,10.3q-9.7,5.1-23.4,5.1a51.9,51.9,0,0,1-16-2.3,45,45,0,0,1-12.2-6.1,39.7,39.7,0,0,1-9-9.3,50.5,50.5,0,0,1-6-11.2,91.7,91.7,0,0,0,29.7-14.7,99.1,99.1,0,0,0,21.6-21.8,95.5,95.5,0,0,0,13.2-25.8,87.6,87.6,0,0,0,4.4-26.6,60.3,60.3,0,0,0-2.8-19.1A42.3,42.3,0,0,0,1052,301a37.8,37.8,0,0,0-13.3-9.7,43.7,43.7,0,0,0-17.7-3.4q-13.3,0-26.1,7.8a79.3,79.3,0,0,0-22.7,21.8A116.8,116.8,0,0,0,956,350.3a133.1,133.1,0,0,0-6.1,41.1,119,119,0,0,0,1.5,19.3c-.6,1.5-1.1,3-1.8,4.6a70.2,70.2,0,0,1-11.3,18.8,56,56,0,0,1-17.2,13.6c-6.7,3.4-14.7,5.1-23.8,5.1a48.1,48.1,0,0,1-19-3.8,42.9,42.9,0,0,1-15.1-11,52.8,52.8,0,0,1-9.9-18,79.6,79.6,0,0,1-3.5-24.5,154.9,154.9,0,0,1,2.8-29.6,112.2,112.2,0,0,1,7.6-24.3c3.1-7,6.6-12.5,10.6-16.5s8.2-6,12.4-6,7.1.9,9.4,2.8a21.9,21.9,0,0,1,5.3,6.8,31,31,0,0,1,2.7,8.3c.6,2.9,1.1,5.3,1.7,7.3s0,4.8,1.3,6.1a7.2,7.2,0,0,0,5.1,2.3,20,20,0,0,0,7.3-1,24.1,24.1,0,0,0,7.5-3.8,22.5,22.5,0,0,0,5.8-6.1,14.6,14.6,0,0,0,2.4-8.2,49.5,49.5,0,0,0-2.4-14.1A45.1,45.1,0,0,0,908,292.8c-5.6-3.3-12.4-4.9-20.4-4.9a54,54,0,0,0-30.6,9.3,83.8,83.8,0,0,0-24,24.5,126,126,0,0,0-15.7,34.4,138.6,138.6,0,0,0-5.7,39.4,115.2,115.2,0,0,0,1.5,19c-.4,1.5-.8,3-1.3,4.5a90.2,90.2,0,0,1-6.2,16.3,47.5,47.5,0,0,1-8.9,12.5,16.7,16.7,0,0,1-11.9,5c-3.1,0-5.4-.9-7.1-2.8a15.3,15.3,0,0,1-3.6-6.3,30.6,30.6,0,0,1-1.4-7.2c-.1-2.3-.2-4-.2-5.1V313.1c0-5.6-2.3-10.4-6.7-14.4s-10.6-6-18.3-6a17.2,17.2,0,0,0-8.7,2.1c-2.4,1.5-3.6,3.3-3.6,5.6a16.5,16.5,0,0,0,1,5.5c.7,1.9,1,5.1,1,9.5V439.8a51.9,51.9,0,0,0,2.7,16.8,39.1,39.1,0,0,0,7.6,13.9,34.8,34.8,0,0,0,12.3,9.4,36.5,36.5,0,0,0,16.6,3.6c10,0,18.7-2.4,26.1-7.1a71.5,71.5,0,0,0,19.1-17.7c2-2.8,3.9-5.6,5.7-8.5a78.1,78.1,0,0,0,9,10.8,75.7,75.7,0,0,0,25.8,16.8,81.6,81.6,0,0,0,30,5.7,101,101,0,0,0,30.4-4.3,88.7,88.7,0,0,0,23.3-11.4,80.8,80.8,0,0,0,16.9-16l3.1-4.2a89.2,89.2,0,0,0,9.4,11.7,81.3,81.3,0,0,0,26.4,17.9,78.2,78.2,0,0,0,30.8,6.3,99.8,99.8,0,0,0,30.3-4.3,83.1,83.1,0,0,0,22.9-11.4l3.2-2.4a42.6,42.6,0,0,0,7.5,5.3,92.5,92.5,0,0,0,12.6,6.3,113.2,113.2,0,0,0,14.6,4.7,64.5,64.5,0,0,0,14.9,1.8,68.5,68.5,0,0,0,25.8-4.7,71.1,71.1,0,0,0,19.9-11.9c14.6-1.1,26.8-3.6,36.6-7.6a103.2,103.2,0,0,0,25.7-14.9,68.3,68.3,0,0,0,8-8.1,81.4,81.4,0,0,0,6.9-9.7,52.7,52.7,0,0,0,4.9-9.8,23.4,23.4,0,0,0,1.8-8.1A13.5,13.5,0,0,0,1266.5,403Zm-278.2-8.9a28.2,28.2,0,0,1-.2-4.1,98.7,98.7,0,0,1,.2-11.9,148.6,148.6,0,0,1,1.8-15.2c.9-5.3,2.1-10.5,3.5-15.8a75.3,75.3,0,0,1,5.5-14.1,36.9,36.9,0,0,1,7.7-10.1,15.1,15.1,0,0,1,10.2-3.8,7.9,7.9,0,0,1,7.1,4.3c1.8,2.9,2.6,6.9,2.6,12a75.2,75.2,0,0,1-2.7,20.2,71,71,0,0,1-7.7,17.8,68.2,68.2,0,0,1-12.1,14.6,64,64,0,0,1-15.7,10.4C988.5,396.9,988.4,395.5,988.3,394.1Zm181,38.2a50.1,50.1,0,0,1-7,12.1,50.3,50.3,0,0,1-13.1-2,116,116,0,0,1-14.7-5c-5-2-10-4.2-15-6.5l-4.4-2a97.5,97.5,0,0,0,4.5-13.9,147.1,147.1,0,0,0,3-15.4c2.3-8.3,4.6-15.8,6.7-22.7,2.7-8.7,5.9-17.5,9.5-26.5,4.1,4.1,8.2,8.5,12.2,13.1a106.8,106.8,0,0,1,10.8,14.9,77.2,77.2,0,0,1,7.7,17.3,65.8,65.8,0,0,1,3,20.2A42.1,42.1,0,0,1,1169.3,432.3Z" fill="none"/>
    </clipPath>
    <clipPath id="clip-path-2" transform="translate(-96.4 -123.3)">
      <path id="ERV" d="M711.3,339a124.7,124.7,0,0,0-9.9-25.9,72.1,72.1,0,0,0-13.3-18.3c-4.8-4.6-9.6-6.9-14.3-6.9a11.5,11.5,0,0,0-6.8,2.4,28.8,28.8,0,0,0-6.2,5.9,35.9,35.9,0,0,0-4.4,7.5,19.2,19.2,0,0,0-1.7,7.2c0,1.3.7,2.1,2.3,2.4a9.2,9.2,0,0,1,4.1,1.7l5.5,4.7a30.7,30.7,0,0,1,6.3,8.8,64.6,64.6,0,0,1,5.1,15.1,108,108,0,0,1,2.2,23.4c0,13.5-1.5,25.6-4.5,36.2a99.9,99.9,0,0,1-11.3,26.9c-4.7,7.4-9.9,13-15.7,16.9s-11.7,5.8-17.4,5.8c-4.1,0-6.9-1.3-8.2-3.9s-2.1-6.1-2.1-10.5V313.1a18.6,18.6,0,0,0-6.7-14.4q-6.6-6-18.3-6a16.9,16.9,0,0,0-8.6,2.1c-2.4,1.5-3.7,3.3-3.7,5.6a16.8,16.8,0,0,0,1.1,5.5,34.3,34.3,0,0,1,1,9.5v80.4a26.5,26.5,0,0,0-2.1,6.7q-1.5,7.8-3.9,16.5a83.6,83.6,0,0,1-6.3,16.3,44.9,44.9,0,0,1-9.5,12.5,20.3,20.3,0,0,1-13.7,5,16,16,0,0,1-8.3-2.1,16.9,16.9,0,0,1-5.8-5.5,29.5,29.5,0,0,1-3.4-8.1,36.4,36.4,0,0,1-1.1-9.3,176.2,176.2,0,0,1,1.6-23.8c1-8.1,2.3-16,3.8-23.5s3.2-14.9,5-21.8,3.5-13,5-18.3,2.8-9.7,3.9-13.2a28.1,28.1,0,0,0,1.6-6.6,13.3,13.3,0,0,0-1.9-8.6,47.9,47.9,0,0,0-6.5-8.5,41.8,41.8,0,0,0-7.9-6.5c-2.6-1.7-4.6-2.5-6-2.5h-28l-4.5-.2-6.7-.6-9.7-1a43.1,43.1,0,0,0-5.2-11.8,32,32,0,0,0-7.2-7.8,25.2,25.2,0,0,0-8.4-4.1,37.4,37.4,0,0,0-8.5-1.1,26.8,26.8,0,0,0-8.9,1.5,21.3,21.3,0,0,0-7.5,4.3,22.9,22.9,0,0,0-5.1,6.8,19.9,19.9,0,0,0-2,8.8,27.9,27.9,0,0,0,5.7,17.6,46.3,46.3,0,0,0,14.4,12.2c-.2,5.9-.4,12.6-.7,20.1s-.7,15-1.3,22.5-1.2,14.6-2.1,21.4c-.6,3.9-1.1,7.4-1.8,10.7a.4.4,0,0,1-.1.3l-.9,4.6a8.3,8.3,0,0,0-.4,1.5c0,.1-.1.2-.1.3a115.4,115.4,0,0,1-4.7,14.8,71.4,71.4,0,0,1-10.8,18.8,53.2,53.2,0,0,1-16.5,13.6q-9.7,5.1-23.4,5.1a51.4,51.4,0,0,1-16-2.3,43.6,43.6,0,0,1-12.2-6.1,39.7,39.7,0,0,1-9-9.3,50.5,50.5,0,0,1-6-11.2,91.7,91.7,0,0,0,29.7-14.7A103.7,103.7,0,0,0,394,387.4a95.5,95.5,0,0,0,13.2-25.8,87.6,87.6,0,0,0,4.4-26.6,60.3,60.3,0,0,0-2.9-19.1,39.4,39.4,0,0,0-8.3-14.9,36.1,36.1,0,0,0-13.3-9.7,43.2,43.2,0,0,0-17.6-3.4q-13.3,0-26.1,7.8a80.9,80.9,0,0,0-22.8,21.8,119.4,119.4,0,0,0-16.1,32.8,133,133,0,0,0-6.2,41.1c0,14.5,2.3,27.5,7,39a87.8,87.8,0,0,0,18.4,28.9,80.2,80.2,0,0,0,26.4,17.9,78.2,78.2,0,0,0,30.8,6.3,99.1,99.1,0,0,0,30.2-4.3,83.8,83.8,0,0,0,23-11.4,78.5,78.5,0,0,0,16.5-16,100.6,100.6,0,0,0,11-18.4,92.1,92.1,0,0,0,6.5-18.4c1.4-6,2.5-11.4,3.1-16.1v-.8c.5-2.3,1-4.7,1.4-7.2,1.5-8,2.7-16,3.6-23.9s1.5-15.3,1.9-22.2.7-12.8.8-17.3h40.7a463.2,463.2,0,0,0-17.4,55.3,206.2,206.2,0,0,0-6,47.7c0,10.3,1.5,18.8,4.4,25.6A47.1,47.1,0,0,0,512,472.3a40.5,40.5,0,0,0,15.5,8.7,60.9,60.9,0,0,0,16.7,2.5c10,0,18.7-2.4,26.1-7.1a68.8,68.8,0,0,0,18.6-17.1,42.2,42.2,0,0,0,5.5,10.8,31.9,31.9,0,0,0,12.2,9.7c5.1,2.5,11.3,3.7,18.8,3.7a76.2,76.2,0,0,0,37-9.1,87.1,87.1,0,0,0,28.3-24.8A118.2,118.2,0,0,0,708.8,413a150.8,150.8,0,0,0,6.4-44.6A112,112,0,0,0,711.3,339ZM336.8,394.1a28.3,28.3,0,0,1-.3-4.1c-.1-3.2,0-7.2.3-11.9a148.6,148.6,0,0,1,1.8-15.2c.9-5.3,2.1-10.5,3.5-15.8a75.3,75.3,0,0,1,5.5-14.1,36.9,36.9,0,0,1,7.7-10.1,14.8,14.8,0,0,1,10.1-3.8c3.1,0,5.4,1.4,7.2,4.3s2.6,6.9,2.6,12a75.2,75.2,0,0,1-2.7,20.2,67.8,67.8,0,0,1-7.8,17.8,64.9,64.9,0,0,1-12,14.6A64,64,0,0,1,337,398.4C337,396.9,336.9,395.5,336.8,394.1Z" fill="none"/>
    </clipPath>
    <clipPath id="clip-path-3" transform="translate(-96.4 -123.3)">
      <path id="S" d="M194,487.3q-14.9,0-24.6-3.3c-6.5-2.2-11.7-4.6-15.5-7.3s-6.4-5.4-7.9-7.9-2.3-4.1-2.3-4.9a24.2,24.2,0,0,1,1.8-8.7,45.1,45.1,0,0,1,4.6-8.7,35.3,35.3,0,0,1,5.9-6.7q3.1-2.7,5.7-2.7c2.1,0,3.8,1.3,5.2,4.1.3.3,1.1,1,2.3,2.3a26,26,0,0,0,5.1,3.7,37.4,37.4,0,0,0,8.2,3.5,35.9,35.9,0,0,0,11.5,1.6q14.3,0,23.4-8.7c6-5.9,9.1-13.8,9.1-23.8a35.8,35.8,0,0,0-4.9-18.6,65.6,65.6,0,0,0-12.9-15.3,144,144,0,0,0-18.2-13.7l-20.9-14c-7.1-4.9-14.1-10.1-20.9-15.7a107.6,107.6,0,0,1-18.2-19.3,94.7,94.7,0,0,1-12.8-24.7c-3.3-9.2-4.9-19.7-4.9-31.5a94.7,94.7,0,0,1,5.2-30.7,132,132,0,0,1,14.4-29.5,163.6,163.6,0,0,1,48.8-47.3,137.3,137.3,0,0,1,30.4-14.1,102.5,102.5,0,0,1,31.7-5.1,68.2,68.2,0,0,1,24.6,4.3,52.4,52.4,0,0,1,18.4,12.2,53.2,53.2,0,0,1,11.6,18.9,71.1,71.1,0,0,1,4.1,24.7,72.1,72.1,0,0,1-4.6,25.4,107.8,107.8,0,0,1-12,23.7,140,140,0,0,1-17,20.6,150.4,150.4,0,0,1-19.3,16.3,99.1,99.1,0,0,1-19.2,10.8c-6.2,2.6-11.7,3.9-16.4,3.9a21.2,21.2,0,0,1-11-2.9,26.5,26.5,0,0,1-8.2-7,34.7,34.7,0,0,1-5.1-8.9,23.1,23.1,0,0,1-1.8-8.3c0-1.9.2-3.2.8-3.8a2.3,2.3,0,0,1,2.2-.8,16.3,16.3,0,0,1,3.8.7,26.2,26.2,0,0,0,5.2.5c6.4,0,13.4-2.2,21.2-6.6a103.5,103.5,0,0,0,21.8-16.8,106.6,106.6,0,0,0,17.2-22.5c4.6-8.2,6.9-16.2,6.9-23.9s-1.9-14.1-5.8-18.6-10.4-6.9-19.7-6.9a60.5,60.5,0,0,0-18.7,3.3,108,108,0,0,0-20.4,9.2,130.9,130.9,0,0,0-19.8,14.4,117.5,117.5,0,0,0-16.8,18.5,99.5,99.5,0,0,0-11.7,21.8,67.7,67.7,0,0,0-4.4,24.5,57.8,57.8,0,0,0,4.8,24,74.8,74.8,0,0,0,13,19.2,117.4,117.4,0,0,0,18.3,15.9c6.8,4.9,13.8,9.7,20.9,14.4s14.1,9.8,21,14.8a118,118,0,0,1,18.3,16.9,77.4,77.4,0,0,1,12.9,20.4c3.3,7.5,4.9,16.1,4.9,25.8a68.3,68.3,0,0,1-20,48.7,70.9,70.9,0,0,1-22.1,14.8A68.4,68.4,0,0,1,194,487.3Z" fill="none"/>
    </clipPath>
    <clipPath id="clip-path-4" transform="translate(-96.4 -123.3)">
      <path id="DOT" d="M742.1,238.1a27.7,27.7,0,0,0,8.9,6.1,25,25,0,0,0,10.8,2.3,28.6,28.6,0,0,0,20.4-8.4,30.5,30.5,0,0,0,5.9-9,28.7,28.7,0,0,0,2.1-11,30.4,30.4,0,0,0-2.1-11.4,26.4,26.4,0,0,0-14.9-14.9,30.4,30.4,0,0,0-11.4-2.1,28.1,28.1,0,0,0-10.8,2.1,28.8,28.8,0,0,0-8.9,5.9,28.4,28.4,0,0,0-6,9,28.7,28.7,0,0,0-2.3,11.4,27.1,27.1,0,0,0,2.3,11A30.8,30.8,0,0,0,742.1,238.1Z" fill="none"/>
    </clipPath>
  </defs>
  <title>Services</title>
  <g id="ICES">
    <g clip-path="url(#clip-path)">
      <path id="ICES2" d="M831.5,419.5s49,104,139,0c0,0,106-37,64-111-55-48-130,187,19,157,56-2,100-219,86-177-45,30,51,70,48,124s-54,76-91,32-38-8,39,12,138-57,136-81" transform="translate(-96.4 -123.3)" fill="none" stroke="#000" stroke-miterlimit="10" />
      <path id="ICES1" d="M743.5,270.5s10,21,10,54-20,244,77,95c0,0-12-90,52-117,46-12,36,73,36,73" transform="translate(-96.4 -123.3)" fill="none" stroke="#000" stroke-miterlimit="10" />
    </g>
  </g>
  <g id="ERV_mask">
    <g clip-path="url(#clip-path-2)">
      <path id="ERV1" d="M280,430s125-17,111-107-141.5,87.5-29.5,138.5,110-165,104-176-52,13,32,25l39,5s-68,179,27,145c0,0,48-9,38-182l3,167s11,61,73-8-33-170-33-170" transform="translate(-96.4 -123.3)" fill="none" stroke="#000" stroke-miterlimit="10" />
    </g>
  </g>
  <g id="S_mask">
    <g clip-path="url(#clip-path-3)">
      <path id="S1" d="M179.5,289.5s102-9,103-100-196,7-145,100,138,82,99,155-117-21-117-21" transform="translate(-96.4 -123.3)" fill="none" stroke="#000" stroke-miterlimit="10"/>
    </g>
  </g>
  <g id="IDOT">
    <g clip-path="url(#clip-path-4)">
      <line id="DOT1" x1="629.1" y1="119.2" x2="698.1" y2="62.2" fill="none" stroke="#000" stroke-miterlimit="10" />
    </g>
  </g>
</svg>
