<svg id="Layer_1" data-name="Layer 1" xmlns="http://www.w3.org/2000/svg" xmlns:xlink="http://www.w3.org/1999/xlink" viewBox="0 0 1328 373.1">
  <defs>
    <clipPath id="clip-path" transform="translate(-46.2 -135.7)">
      <path id="S" d="M1347.4,401.5a28.2,28.2,0,0,0-3.5-5.7,23.4,23.4,0,0,0-5-4.5,10.5,10.5,0,0,0-5.6-1.8,6.4,6.4,0,0,0-5.2,2.8c-1.6,1.8-3.1,4.7-4.6,8.7a62.3,62.3,0,0,1-4.8,10.1,37.1,37.1,0,0,1-7.1,8.9,47.4,47.4,0,0,1-10,7.2,44.4,44.4,0,0,1-13.3,4.6,41.5,41.5,0,0,0,1.5-7.5,52.2,52.2,0,0,0,.6-7.8c0-10.1-1.5-19-4.4-26.6a113.9,113.9,0,0,0-11.2-21.3c-4.6-6.7-9.6-13.5-15-20.3a177.1,177.1,0,0,1-15.7-23.7,17.7,17.7,0,0,1,1.8-3.8c1-1.9,2.2-4.3,3.4-7a80.7,80.7,0,0,0,3.5-8.8,30.9,30.9,0,0,0,1.5-9.5c0-5.9-1.2-10.5-3.8-14s-6.5-5.3-11.7-5.3q-4.3,0-10.5,3.3a64,64,0,0,0-12,8.2,62.9,62.9,0,0,0-9.8,11c-2.7,4-4.1,7.8-4.1,11.5a27.7,27.7,0,0,0,1.9,10.3,50.4,50.4,0,0,0,5,9.8c-3.9,11.4-7.8,22.9-11.8,34.4a281.5,281.5,0,0,0-9.1,31.5,12,12,0,0,0,1.8,10.1,16.7,16.7,0,0,0,7.5,6.5,13,13,0,0,0,9.1.3c3.1-1.1,5.2-3.8,6.3-8.3,2.8-10.2,5.4-19.3,7.9-27.3s5.5-16.2,8.8-24.4c3.8,3.8,7.5,7.8,11.2,12a102.1,102.1,0,0,1,10,13.7,74.8,74.8,0,0,1,7.1,16,61.5,61.5,0,0,1,2.7,18.6,37.3,37.3,0,0,1-2.9,15.1,41.1,41.1,0,0,1-6.5,11.1,46,46,0,0,1-12-1.8,113.4,113.4,0,0,1-13.5-4.6c-4.6-1.9-9.3-3.9-13.9-6l-12.7-5.9c-3.9-1.9-7.4-3.5-10.4-4.6a20.4,20.4,0,0,0-6.6-1.8c-2.4,0-4.7,1.3-6.9,3.8a21.5,21.5,0,0,0-4.5,10c-.8,4-.4,8.6,1.1,13.7s5,10.2,10.3,15.2a43.6,43.6,0,0,0,8.4,6.3,78.3,78.3,0,0,0,11.6,5.7,83.8,83.8,0,0,0,13.4,4.3,55.2,55.2,0,0,0,13.7,1.7,63.2,63.2,0,0,0,42.1-15.3c13.4-1,24.7-3.3,33.7-7a93.9,93.9,0,0,0,23.7-13.7,56.9,56.9,0,0,0,7.3-7.4,77.8,77.8,0,0,0,6.4-9,47.3,47.3,0,0,0,4.5-9,22,22,0,0,0,1.7-7.5A12.7,12.7,0,0,0,1347.4,401.5Z" fill="none"/>
    </clipPath>
    <clipPath id="clip-path-2" transform="translate(-46.2 -135.7)">
      <path id="U" d="M1153,462.4c-.4-3.5-.9-7.7-1.3-12.7s-.8-11.1-1.2-18.4-.8-16.1-1-26.4-.3-22.4-.3-36.5v-186c0-5.3-2.2-9.8-6.7-13.5s-10.3-5.6-17.4-5.6a13.8,13.8,0,0,0-7.8,2.1c-2.2,1.4-3.3,3.2-3.3,5.3a16.1,16.1,0,0,0,.9,5,35.7,35.7,0,0,1,.8,8.8V347.4a62.8,62.8,0,0,1-3.4,19.7,154,154,0,0,1-8.5,21,186.5,186.5,0,0,1-11.8,20.2,172.9,172.9,0,0,1-12.8,17.1,103.9,103.9,0,0,1-11.9,12c-3.6,3-6.5,4.5-8.6,4.5a4.3,4.3,0,0,1-2.6-1c-.9-.6-1.3-2.3-1.3-5.1V181.3a17.4,17.4,0,0,0-1.5-7.1,21,21,0,0,0-3.8-5.7,16,16,0,0,0-5.4-3.8,16.5,16.5,0,0,0-6.5-1.4,137.6,137.6,0,0,0-26.4,2.7,123.7,123.7,0,0,0-27.2,8.4,118,118,0,0,0-25.6,15.3,96.8,96.8,0,0,0-21.2,22.9,111.7,111.7,0,0,0-14.6,31.3,139.7,139.7,0,0,0-5.5,40.5,125.1,125.1,0,0,0,3.5,30.2,126.5,126.5,0,0,0,8.8,24.8,96.8,96.8,0,0,0,11.7,18.7,57.3,57.3,0,0,0,12.1,11.5,12,12,0,0,0,10,2.3,21.7,21.7,0,0,0,10.1-4.9,31.1,31.1,0,0,0,7.6-10,29.5,29.5,0,0,0,3.1-12.9c0-3.5-1.2-5.3-3.4-5.3a6.8,6.8,0,0,0-3.3.9,9,9,0,0,1-3.6.8c-1.4,0-3.4-1.3-5.9-4a47,47,0,0,1-7.5-11.2,82.5,82.5,0,0,1-6.5-17.6,92.1,92.1,0,0,1-2.7-23.3c0-13.5,1.8-25.5,5.5-35.8a81.8,81.8,0,0,1,15.1-26.4A70.7,70.7,0,0,1,994.1,205a88.7,88.7,0,0,1,27.4-8.2V438.3c0,7.2.9,13.1,2.8,17.8a31.8,31.8,0,0,0,7.1,11.4,25.2,25.2,0,0,0,9.4,6.2,27.4,27.4,0,0,0,9.8,1.9,42.9,42.9,0,0,0,18-4.1,72.8,72.8,0,0,0,17-11.3,123.1,123.1,0,0,0,15.9-16.9,231.6,231.6,0,0,0,14.2-20.9v.8c.3,8.7.6,16.3,1,22.9a117,117,0,0,0,2.2,16.4q1.6,6.6,4.8,9.9c2.1,2.1,5,3.2,8.8,3.2a39.8,39.8,0,0,0,7.4-.8,41.2,41.2,0,0,0,7-2.2,17.8,17.8,0,0,0,5.2-3.3,5.3,5.3,0,0,0,2.1-4A6.3,6.3,0,0,0,1153,462.4Z" fill="none"/>
    </clipPath>
    <clipPath id="clip-path-3" transform="translate(-46.2 -135.7)">
      <path id="BOUT" d="M877.3,263.7c-.4-2.1-1.2-3.5-2.4-4s-2.7.2-4.7,2.3c-14.6.7-29.3,1.2-43.8,1.4s-28.5.5-41.6.5V188.7a17.3,17.3,0,0,0-6.2-13.3c-4.1-3.7-9.7-5.6-16.9-5.6l-4.7.3-4.5,1a10.2,10.2,0,0,0-3.3,1.5,2.2,2.2,0,0,0-1.3,2,3.2,3.2,0,0,0,.8,2c.4.7.9,1.5,1.4,2.5a24.9,24.9,0,0,1,2.2,11.7v72.6l-15.9-.3c-4.7,0-8.8-.2-12.1-.5s-7.5-.3-10.7-.6a5.5,5.5,0,0,0-5.8,4.5,18.7,18.7,0,0,0,.4,9.9,26.6,26.6,0,0,0,5.5,10c2.6,3,5.5,4.5,8.9,4.5l7.7.4,9.3.3h12.7V395.3a32.4,32.4,0,0,0-1.7,5.7c-.9,4.8-2.2,9.9-3.6,15.2a83.3,83.3,0,0,1-5.7,15,42.1,42.1,0,0,1-8.1,11.5,15.5,15.5,0,0,1-11.2,4.6c-2.8,0-5-.8-6.5-2.5a14.8,14.8,0,0,1-3.4-5.8,27.1,27.1,0,0,1-1.2-6.6q-.3-3.3-.3-4.8V318.7a17.4,17.4,0,0,0-6.1-13.3c-4.2-3.7-9.8-5.5-16.9-5.5l-4.7.3a29.9,29.9,0,0,0-4.5.9,22.7,22.7,0,0,0-3.4,1.5,2.4,2.4,0,0,0-1.2,1.9,3.4,3.4,0,0,0,.7,2.2,13.7,13.7,0,0,1,1.5,2.5,21.7,21.7,0,0,1,1.4,4.3,28.4,28.4,0,0,1,.8,7.3v69.1a146.4,146.4,0,0,1-5.3,21.7,101.9,101.9,0,0,1-7.8,18.5A48.1,48.1,0,0,1,655,442.9a17.7,17.7,0,0,1-12,4.9c-6.3,0-11.1-3-14.6-9.1s-5.1-14.8-5.1-26.5c0-9,.3-17,.8-24.2s1.4-14.1,2.5-20.8,2.3-13.2,3.8-19.8,3.3-13.8,5.3-21.7a32.2,32.2,0,0,1,2.6-6.5,28.2,28.2,0,0,0,2.5-7.8,8.6,8.6,0,0,0-1.8-6.6c-1.5-1.9-4.9-2.8-10.2-2.8s-10,.5-12.7,1.5a13.4,13.4,0,0,0-6,3.7,13,13,0,0,0-2.4,5.2,28.5,28.5,0,0,1-1.6,5.5c-2.9,10.1-5.5,20.5-7.7,31.2-2,9.2-3.8,19.6-5.4,31a257.6,257.6,0,0,0-2.3,28.9,38.8,38.8,0,0,1-4,5.7,29.5,29.5,0,0,1-9.2,6.7,29.2,29.2,0,0,1-12.2,2.5H561a14.8,14.8,0,0,1-4.3-1,148.3,148.3,0,0,0,4.6-22.6,186.2,186.2,0,0,0,1.5-23.7,141.5,141.5,0,0,0-2.8-28.6,93,93,0,0,0-7.9-22.9,50,50,0,0,0-11.7-15.1,22.4,22.4,0,0,0-14.3-5.4,28.2,28.2,0,0,0-15.1,4.1,33.1,33.1,0,0,0-10.7,11,51.2,51.2,0,0,0-6.5,16,80.1,80.1,0,0,0-2.2,19.2,117.6,117.6,0,0,0,7.8,43.2c5.3,13.3,12.9,24.3,23,33a38.1,38.1,0,0,1-10.2,11.8c-4,3-9,4.5-15.2,4.5a22.6,22.6,0,0,1-11.8-3.3,30.3,30.3,0,0,1-9.9-10.2,56.6,56.6,0,0,1-6.7-16.8,103,103,0,0,1-2.4-23.7,151.1,151.1,0,0,1,2.1-27.2,100.8,100.8,0,0,1,5.2-19.2,69.6,69.6,0,0,1,6.4-13.1l6-9.2a10.6,10.6,0,0,0,4.9-7.7,22.6,22.6,0,0,0-.8-10,21.9,21.9,0,0,0-5-8.6,10.5,10.5,0,0,0-7.7-3.6q-3.4,0-10.8,6.9c-4.8,4.6-9.6,11.2-14.5,20s-9.2,19.3-12.9,31.8-5.5,26.6-5.5,42.4c0,4.3.2,8.5.5,12.6a28.9,28.9,0,0,1-13.6,13,30,30,0,0,1-12.3,2.5h-4.5a14.6,14.6,0,0,1-4.5-1,146.2,146.2,0,0,0,4.9-23.7,191.2,191.2,0,0,0,1.6-25.1q0-18-3.9-31.2A71.2,71.2,0,0,0,391.6,321,42.4,42.4,0,0,0,377,308.3a36,36,0,0,0-16.7-4.2,35.3,35.3,0,0,0-14.2,2.9,31.5,31.5,0,0,0-11.6,9.1,44.5,44.5,0,0,0-7.9,15.7,83.3,83.3,0,0,0-2.8,22.5,96.3,96.3,0,0,0,2.7,22.6,102.3,102.3,0,0,0,20.2,40.2,88.2,88.2,0,0,0,16.5,15.2,33.9,33.9,0,0,1-9.4,11,23.1,23.1,0,0,1-13.7,4,25.2,25.2,0,0,1-13.5-3.6,29.6,29.6,0,0,1-9.5-10.3,52.1,52.1,0,0,1-5.6-15.6,93.4,93.4,0,0,1-1.9-19.7V197.3a17.3,17.3,0,0,0-6.2-13.3c-4.1-3.7-9.8-5.6-16.9-5.6l-4.7.3a29.7,29.7,0,0,0-4.5,1,13,13,0,0,0-3.3,1.4,2.5,2.5,0,0,0-1.3,2.1,3.1,3.1,0,0,0,.7,2,18.3,18.3,0,0,1,1.5,2.5,29.7,29.7,0,0,1,1.5,4.3,29.3,29.3,0,0,1,.7,7.4V404a101.5,101.5,0,0,0,3.9,28.9,64.8,64.8,0,0,0,11.5,22.7,52.3,52.3,0,0,0,18.8,14.8c7.5,3.5,16.2,5.2,26.1,5.2,12.6,0,23.1-2.8,31.6-8.5a64.6,64.6,0,0,0,20.8-22.3,55.1,55.1,0,0,0,10.7,2.3,102.3,102.3,0,0,0,11.3.7,56.1,56.1,0,0,0,19.7-3.4,50.7,50.7,0,0,0,10.1-5.2,72.9,72.9,0,0,0,7,12.6,56,56,0,0,0,19.5,17.4c7.8,4.3,17.2,6.4,28.1,6.4s22.6-2.8,31-8.5a65.7,65.7,0,0,0,20.5-22.3,47.5,47.5,0,0,0,9.9,2.3,95.4,95.4,0,0,0,11,.7,55.3,55.3,0,0,0,19.7-3.4,54.6,54.6,0,0,0,6-2.7,53.6,53.6,0,0,0,8.3,17.5,41.3,41.3,0,0,0,14.3,12.4,40.5,40.5,0,0,0,19.2,4.4,37.4,37.4,0,0,0,24.7-8.6A76.4,76.4,0,0,0,679,445.2a37.5,37.5,0,0,0,4,12.1,35.2,35.2,0,0,0,7.4,9.6,32.9,32.9,0,0,0,10.5,6.4,37.5,37.5,0,0,0,13.3,2.3,44.6,44.6,0,0,0,24.1-6.5,66.6,66.6,0,0,0,17.6-16.3l.3-.4a36.5,36.5,0,0,0,7.2,12.2,31.1,31.1,0,0,0,12.5,8.4,47.2,47.2,0,0,0,15.8,2.6,44.6,44.6,0,0,0,24.1-6.5,68.5,68.5,0,0,0,17.7-16.3,95.1,95.1,0,0,0,12.1-21.6,184,184,0,0,0,7.5-22.4,10.8,10.8,0,0,0,.4-1.9v-1a16,16,0,0,0-1.4-6.3,23.6,23.6,0,0,0-3.5-5.7,24.3,24.3,0,0,0-5-4.1,10.6,10.6,0,0,0-5.2-1.5c-2.1,0-4.1,1-6.1,3s-3.3,5.3-4.2,9.7-2.2,9.9-3.6,15.2a83.3,83.3,0,0,1-5.7,15,40.3,40.3,0,0,1-8.2,11.5,15.2,15.2,0,0,1-11.2,4.6,13.2,13.2,0,0,1-10.6-4.6c-2.7-3-4-8.1-4-15.1V291.7h37c13.1-.1,28.3-.3,45.5-.7,1.8,0,3.5-1.1,4.9-3.2a25.4,25.4,0,0,0,3.5-7.4,51.9,51.9,0,0,0,1.7-8.9A38.3,38.3,0,0,0,877.3,263.7ZM372.6,390.9a132.5,132.5,0,0,1-1.7,15A75.6,75.6,0,0,1,356,382a77.9,77.9,0,0,1-5.6-29.3c0-6.2.6-11.1,1.8-14.8s3.2-5.5,6-5.5,7.3,3.9,10.3,11.7S373,363,373,377.4C373,381.4,372.9,385.9,372.6,390.9Zm157.9,12.2a79.2,79.2,0,0,1-11.8-22.6,82.9,82.9,0,0,1-4.5-27.4c0-13.6,2.4-20.3,7.3-20.3,2.3,0,4,1.3,5.4,3.8a41,41,0,0,1,3.1,10.6,113.3,113.3,0,0,1,1.5,16c.2,6.3.3,13,.3,20.3A149.9,149.9,0,0,1,530.5,403.1Z" fill="none"/>
    </clipPath>
    <clipPath id="clip-path-4" transform="translate(-46.2 -135.7)">
      <path id="A" d="M243.7,292.6a13.3,13.3,0,0,0-4.7-1.9,24.9,24.9,0,0,0-5.2-.7,32.3,32.3,0,0,0-11.6,2.2c-3.6,1.5-5.6,3.6-6,6.4-1.4,11.2-3,22.7-4.9,34.4s-3.9,23.1-6.5,34.1a259.1,259.1,0,0,1-8.9,31.1,116.2,116.2,0,0,1-12.3,25.5,59,59,0,0,1-16.9,17.2,38.8,38.8,0,0,1-22.2,6.4c-9.2,0-16.9-2.3-23.2-7s-11.3-11.1-15.1-19.4-6.5-18-8.2-29.4a267.7,267.7,0,0,1-2.5-37.2,224.5,224.5,0,0,1,3-35.4,260.1,260.1,0,0,1,8.5-36.7,210,210,0,0,1,14.2-34.5A133.4,133.4,0,0,1,141,218.9a88.9,88.9,0,0,1,25.2-19.7,64.8,64.8,0,0,1,30.7-7.4,25.1,25.1,0,0,1,10.6,2.1,22.9,22.9,0,0,1,7.4,5.4,20.5,20.5,0,0,1,4.4,7.4,25.1,25.1,0,0,1,1.5,8.6,39.2,39.2,0,0,1-6.4,21.8A59.5,59.5,0,0,1,198,253.5a83,83,0,0,1-45.7,14.1,38.2,38.2,0,0,1-7.6-.6,16.4,16.4,0,0,1-4.3-1.5l-2.5-1.4a3.7,3.7,0,0,0-2-.7c-.7,0-1.3.5-1.9,1.3a8.5,8.5,0,0,0-1.6,3.3,24.7,24.7,0,0,0-1,4.3,39.9,39.9,0,0,0-.3,4.8c0,7.1,1.9,12.5,5.6,16.1a18.6,18.6,0,0,0,13.5,5.4,122.8,122.8,0,0,0,38.3-6.2A113.8,113.8,0,0,0,222,274.8a92.4,92.4,0,0,0,23.7-27,67.2,67.2,0,0,0,9-34.2,60.5,60.5,0,0,0-3.8-21.3A49.4,49.4,0,0,0,240,175a48.1,48.1,0,0,0-17.5-11.7,61.9,61.9,0,0,0-23.5-4.2,94,94,0,0,0-38.4,8,124.5,124.5,0,0,0-33.5,21.8,167.6,167.6,0,0,0-27.5,32.7,215.3,215.3,0,0,0-20.7,40.6,258.8,258.8,0,0,0-17.5,93q0,34.5,5.7,58.5c3.9,16,9.3,29,16.3,38.9s15.3,17.1,25,21.5a75.3,75.3,0,0,0,32.1,6.7,63,63,0,0,0,21.7-3.7,74.4,74.4,0,0,0,19.2-10.4,85.8,85.8,0,0,0,15.9-15.4,89.1,89.1,0,0,0,11.9-19c.3,8.6.6,15.9.9,21.8a76.4,76.4,0,0,0,1.8,14.3c.9,3.5,2.3,6.1,4.3,7.6s4.8,2.3,8.5,2.3a33,33,0,0,0,7.5-.8,33.8,33.8,0,0,0,7-2.3,20.4,20.4,0,0,0,5.2-3.4,5.1,5.1,0,0,0,2.1-3.9,6.5,6.5,0,0,0-1.2-3c-.4-3.3-.9-7.5-1.3-12.4s-.8-11.2-1.2-18.6-.8-16.2-1-26.4-.3-22.3-.3-36.4a416.5,416.5,0,0,1,1.9-43.5c1.2-12,2.4-20.9,3.5-26.5a7.5,7.5,0,0,0-.3-5.2A7.2,7.2,0,0,0,243.7,292.6Z" fill="none"/>
    </clipPath>
  </defs>
  <title>AboutUs</title>
  <g id="S_MASK">
    <g clip-path="url(#clip-path)">
      <path id="S1" d="M1198,413s61-166,24-112c-7.5,27.5,37.5,67.5,37.5,67.5s61,130-69,79c-40-25,24,1,42,3s102-1,112-64" transform="translate(-46.2 -135.7)" fill="none" stroke="#000" stroke-width="60"/>
    </g>
  </g>
  <g id="U_MASK">
    <g clip-path="url(#clip-path-2)">
      <path id="U1" d="M983,376s-94.5-81.5-22.5-169.5c41-30,75-28,75-28l5,270s114,48,89-299c0,0-9,274,16,340" transform="translate(-46.2 -135.7)" fill="none" stroke="#000" stroke-width="60"/>
    </g>
  </g>
  <g id="BOUT_MASK">
    <g clip-path="url(#clip-path-3)">
      <path id="BOUT4" d="M694.5,276.5s102,5,195,0" transform="translate(-46.2 -135.7)" fill="none" stroke="#000" stroke-width="60"/>
      <path id="BOUT3" d="M602.5,422.5s11,60,53,31,38-43,37-168c0,0-26,271,66,144,19-62,5-292,5-292s-32,525,87,242" transform="translate(-46.2 -135.7)" fill="none" stroke="#000" stroke-width="60"/>
      <path id="BOUT2" d="M450.5,416.5s19,86,81,25c44-57-5-160-22-114-16,48,9,92,48,107,23,5,45-12,45-12s0-66,29-137" transform="translate(-46.2 -135.7)" fill="none" stroke="#000" stroke-width="60"/>
      <path id="BOUT1" d="M290.5,162.5s-11,274,25,293,102-23,60-133c-25-38-84,77,34,111,30-1,41-17,41-17s-13-75,50-119" transform="translate(-46.2 -135.7)" fill="none" stroke="#000" stroke-width="60"/>
    </g>
  </g>
  <g id="A_MASK">
    <g clip-path="url(#clip-path-4)">
      <path id="A1" d="M119.5,279.5s135,16,109-88c-70-88-236,178-101,271,0,0,104,22,104-183,0,0-20,130,6,221" transform="translate(-46.2 -135.7)" fill="none" stroke="#000" stroke-width="60"/>
    </g>
  </g>
</svg>
