<svg xmlns="http://www.w3.org/2000/svg" viewBox="0 0 738.1 859.7">
  <title>BIAB-icon</title>
  <g id="Layer_2" data-name="Layer 2">
    <path d="M262.7,191.1s79-28,40,55-155-51-153-125c13-33,225-86,225-86s349,292,343,650c78,83-51,112-51,112s-338,137-527,17" transform="translate(-19.7 -18.7)" fill="none" stroke="#000" stroke-linecap="round" stroke-miterlimit="10" stroke-width="30"/>
  </g>
  <g id="Layer_3" data-name="Layer 3">
    <path d="M311.7,216.1l54-25s38,45,33,157,12,213,126,272" transform="translate(-19.7 -18.7)" fill="none" stroke="#000" stroke-linecap="round" stroke-miterlimit="10" stroke-width="30"/>
  </g>
  <g id="Layer_4" data-name="Layer 4">
    <path d="M34.7,447.1s158,31,140,165" transform="translate(-19.7 -18.7)" fill="none" stroke="#000" stroke-linecap="round" stroke-miterlimit="10" stroke-width="30"/>
  </g>
  <g id="Layer_5" data-name="Layer 5">
    <path d="M160.7,529.1s108-85,258-16" transform="translate(-19.7 -18.7)" fill="none" stroke="#000" stroke-linecap="round" stroke-miterlimit="10" stroke-width="30"/>
    <path d="M211.7,702.1s108,98,271-6" transform="translate(-19.7 -18.7)" fill="none" stroke="#000" stroke-linecap="round" stroke-miterlimit="10" stroke-width="30"/>
  </g>
</svg>
