<svg id="Layer_1" data-name="Layer 1" xmlns="http://www.w3.org/2000/svg" xmlns:xlink="http://www.w3.org/1999/xlink" viewBox="0 0 1339.7 456.8">
  <defs>
    <clipPath id="clip-path" transform="translate(-14.5 -121.3)">
      <path id="ONTACT" d="M1340.9,277.7c-.4-2.8-1.4-4.5-3-5.3s-3.6.3-6.2,3.1c-19.3.9-38.6,1.5-57.8,1.9s-37.5.6-54.8.6V178.9c0-6.8-2.7-12.6-8.1-17.5s-12.9-7.3-22.2-7.3a43,43,0,0,0-6.2.4,49,49,0,0,0-6,1.2,16.5,16.5,0,0,0-4.4,2,3.1,3.1,0,0,0-1.6,2.7,4.6,4.6,0,0,0,.9,2.7,12.5,12.5,0,0,1,1.9,3.3,31.4,31.4,0,0,1,2,5.6,41.4,41.4,0,0,1,.9,9.7v95.7l-20.9-.4c-6.3-.1-11.6-.3-16-.7s-9.9-.4-14.1-.8-6.6,2-7.6,5.9a24.7,24.7,0,0,0,.6,13.1,33,33,0,0,0,7.1,13.1c3.4,4,7.4,6,11.8,6l10.2.5,12.3.4,16.6.2V448.5a127.2,127.2,0,0,1-7.7,25.6,86.8,86.8,0,0,1-13.8,22.9,66.1,66.1,0,0,1-20.8,16.5c-8.2,4.1-17.8,6.2-28.8,6.2a58.8,58.8,0,0,1-23.1-4.6,49.4,49.4,0,0,1-18.3-13.4,60.3,60.3,0,0,1-12-21.8c-2.9-8.6-4.3-18.5-4.3-29.8a177.6,177.6,0,0,1,3.4-35.8,141.5,141.5,0,0,1,9.2-29.6c3.7-8.4,8-15.1,12.9-20s9.9-7.3,15.1-7.3,8.5,1.2,11.3,3.5a25.3,25.3,0,0,1,6.5,8.3,43.5,43.5,0,0,1,3.3,10,81.3,81.3,0,0,0,2,8.9c-.5,3.3,0,5.7,1.5,7.4a9.2,9.2,0,0,0,6.3,2.8,27.2,27.2,0,0,0,8.8-1.3,30.9,30.9,0,0,0,9.1-4.5,27.8,27.8,0,0,0,7-7.5,16.9,16.9,0,0,0,2.9-9.9,57.7,57.7,0,0,0-2.9-17.1,56.4,56.4,0,0,0-9.2-18.1,54.1,54.1,0,0,0-16.6-14.3c-6.8-4-15.1-6-24.8-6a65.8,65.8,0,0,0-37.1,11.3,105.7,105.7,0,0,0-29.1,29.7,153.9,153.9,0,0,0-19.1,41.8,168.3,168.3,0,0,0-6.9,47.7,147.2,147.2,0,0,0,1.7,22.6c-.4,2-1,4-1.5,6a100.5,100.5,0,0,1-7.5,19.7,56.5,56.5,0,0,1-10.7,15.2,20.8,20.8,0,0,1-14.8,6.1,15.8,15.8,0,0,1-8.7-2.4,17.2,17.2,0,0,1-5.9-6.1,27.1,27.1,0,0,1-3.3-8.2,36.4,36.4,0,0,1-1.1-9.3V400.5c0-6.8-2.8-12.7-8.3-17.5s-13-7.4-22.4-7.4a19.1,19.1,0,0,0-10.3,2.7,7.8,7.8,0,0,0-4.3,7,15,15,0,0,0,.3,2.9c.2,1,.4,2.2.7,3.4s.5,2.9.8,4.7a45.8,45.8,0,0,1,.4,6.9v87.2A67.4,67.4,0,0,1,893.8,511a24.7,24.7,0,0,1-19.3,8.7c-9.9,0-17.8-4-23.5-12s-8.5-19.5-8.5-34.4q0-30.6,8.5-52.8c5.7-14.8,13.1-27.1,22-36.7a85.2,85.2,0,0,1,29.9-21.5c11.1-4.7,21.9-7.1,32.6-7.1a58.7,58.7,0,0,1,8.5.6,76.3,76.3,0,0,0,8,.5c2.8,0,4.7-.9,5.7-2.9s1.5-5.3,1.5-10q0-11.1-7.2-17.4c-4.8-4.3-11-6.4-18.7-6.4a124.4,124.4,0,0,0-50.1,10.5,131.3,131.3,0,0,0-42.9,30.2c-12.5,13.2-22.5,29.1-30.1,47.9s-11.3,39.9-11.3,63.5c0,4.3.2,8.6.6,12.8a101.1,101.1,0,0,1-5.7,13.9A54.6,54.6,0,0,1,783,513.6a20.4,20.4,0,0,1-14.7,6.1,17.9,17.9,0,0,1-14.1-6.1c-3.5-4.1-5.2-10.7-5.2-19.9v-179l48.7-.2q25.9-.2,60-.9c2.4,0,4.5-1.4,6.5-4.2a32.8,32.8,0,0,0,4.5-9.8,63.7,63.7,0,0,0,2.2-11.7,42.6,42.6,0,0,0-.1-10.2c-.5-2.8-1.5-4.5-3.1-5.3s-3.6.3-6.2,3.1c-19.3.9-38.5,1.5-57.8,1.9s-37.4.6-54.7.6V178.9c0-6.8-2.8-12.6-8.2-17.5s-12.8-7.3-22.2-7.3a44,44,0,0,0-6.2.4,47.2,47.2,0,0,0-5.9,1.2,15.1,15.1,0,0,0-4.4,2,3.2,3.2,0,0,0-1.7,2.7,4.1,4.1,0,0,0,1,2.7,16,16,0,0,1,1.9,3.3,32.5,32.5,0,0,1,1.9,5.6,36,36,0,0,1,1,9.7v95.7l-21-.4c-6.2-.1-11.6-.3-16-.7s-9.8-.4-14-.8-6.6,2-7.6,5.9a24.6,24.6,0,0,0,.5,13.1,34.5,34.5,0,0,0,7.2,13.1q5.1,6,11.7,6l10.2.5,12.3.4,16.7.2V466.2c-.9,4-2,8.2-3.2,12.5a107.1,107.1,0,0,1-7.4,19.7,56.7,56.7,0,0,1-10.8,15.2,20.4,20.4,0,0,1-14.7,6.1c-3.7,0-6.5-1.1-8.5-3.3a21.8,21.8,0,0,1-4.2-7.8,33.5,33.5,0,0,1-1.7-8.7c-.2-2.8-.3-4.9-.3-6.2v-117a105.5,105.5,0,0,0-2-19.8,54.8,54.8,0,0,0-7.4-18.5,39.6,39.6,0,0,0-14.3-13.5c-6.1-3.5-13.8-5.3-23.2-5.3a44.8,44.8,0,0,0-19.4,4.3,65,65,0,0,0-16.9,11.9,105.2,105.2,0,0,0-14.6,17.8,185.4,185.4,0,0,0-12.5,22V350.3c0-6.8-2.7-12.7-8.2-17.6s-12.8-7.3-22.2-7.3a21,21,0,0,0-10.5,2.6c-2.9,1.8-4.4,4-4.4,6.8a18.8,18.8,0,0,0,1.3,6.6c.8,2.4,1.2,6.3,1.2,11.6v93.8l-.3,1.1a75.3,75.3,0,0,1-4.4,15.8,44.5,44.5,0,0,1-8,12.9,38.3,38.3,0,0,1-12,8.9,37.7,37.7,0,0,1-16.1,3.3l-5.7-.2a20.9,20.9,0,0,1-5.6-1.2,204.2,204.2,0,0,0,6-29.8,248.9,248.9,0,0,0,2-31.2,179.3,179.3,0,0,0-3.8-37.8,120.6,120.6,0,0,0-10.3-30.1c-4.4-8.4-9.6-15-15.5-19.8s-12.1-7.2-18.7-7.2a36.4,36.4,0,0,0-19.9,5.4,44.8,44.8,0,0,0-14.2,14.5,71.8,71.8,0,0,0-8.6,21.1,108.7,108.7,0,0,0-2.9,25.2,154.8,154.8,0,0,0,10.4,57c6.9,17.6,17,32,30.2,43.4a49,49,0,0,1-13.4,15.6c-5.2,4-11.9,6-20,6a29.4,29.4,0,0,1-15.6-4.5A40.2,40.2,0,0,1,343,501.9a73,73,0,0,1-8.9-22.2c-2.1-8.9-3.1-19.3-3.1-31.2,0-14,.9-26,2.7-35.9a145.6,145.6,0,0,1,6.8-25.2,90,90,0,0,1,8.5-17.3c3.1-4.6,5.7-8.6,7.9-12.1a14.2,14.2,0,0,0,6.5-10.2,29.7,29.7,0,0,0-7.7-24.4c-3.1-3.3-6.4-4.9-10.1-4.9s-7.9,3.1-14.2,9.1-12.8,14.9-19.2,26.4-12.1,25.5-17,41.9-7.3,35.1-7.3,55.9a164.2,164.2,0,0,0,4.8,40.3,102.5,102.5,0,0,0,15.1,33.5,74,74,0,0,0,25.6,22.9c10.3,5.6,22.7,8.4,37,8.4,16.2,0,29.8-3.7,40.9-11.2a87.5,87.5,0,0,0,27-29.3,71.3,71.3,0,0,0,13.1,3,130.7,130.7,0,0,0,14.5.8,73.3,73.3,0,0,0,25.9-4.4,72.4,72.4,0,0,0,10.5-5v21.3c0,5.3.9,9.6,2.6,12.8a22.1,22.1,0,0,0,6.6,7.5,25.5,25.5,0,0,0,8.9,3.5,41.8,41.8,0,0,0,8.9,1c4.1,0,7.2-.8,9.3-2.3a14.6,14.6,0,0,0,4.7-5.8,21.2,21.2,0,0,0,1.6-7.8c.1-2.8.2-5.6.2-8.4V450.1a126.9,126.9,0,0,1,8.1-33.5,163.7,163.7,0,0,1,15-29.9,111.1,111.1,0,0,1,17.4-21.5c5.9-5.6,10.9-8.3,14.9-8.3a8.4,8.4,0,0,1,6.5,2.6,16.6,16.6,0,0,1,3.6,7,49.9,49.9,0,0,1,1.5,10.2c.2,3.9.3,8,.3,12.5V503.9a63.3,63.3,0,0,0,3.2,20.5,49.1,49.1,0,0,0,9.3,16.8,46.3,46.3,0,0,0,14.9,11.4,44.2,44.2,0,0,0,20,4.3c12.2,0,22.8-2.8,31.8-8.5a89.4,89.4,0,0,0,21.1-18.7,47.6,47.6,0,0,0,8.1,12.7,40.6,40.6,0,0,0,16.4,11.1,61.1,61.1,0,0,0,20.9,3.4c12.1,0,22.7-2.8,31.7-8.5a88,88,0,0,0,22.9-21c1.1,1.6,2.1,3.3,3.3,4.8a61.2,61.2,0,0,0,21.1,18.1q12.6,6.6,29.1,6.6c10.7,0,20-2.2,28-6.7a80,80,0,0,0,20.6-16.5,47.8,47.8,0,0,0,17.4,16.9c7.3,4.2,16,6.3,25.9,6.3,12.1,0,22.8-2.8,31.9-8.5a85.5,85.5,0,0,0,23.3-21.6,102.7,102.7,0,0,0,6.9-10.3,92.4,92.4,0,0,0,10.9,13.1,91.1,91.1,0,0,0,31.3,20.4,99.3,99.3,0,0,0,36.4,6.9c13.8,0,26.1-1.7,36.9-5.2a105.8,105.8,0,0,0,28.2-13.8,96.1,96.1,0,0,0,16.4-14.5c2.6,7.7,6.1,14.1,10.7,19a39.9,39.9,0,0,0,16.4,11.1,60.5,60.5,0,0,0,20.8,3.4c12.2,0,22.7-2.8,31.7-8.5a87.4,87.4,0,0,0,23.4-21.6,125.3,125.3,0,0,0,16-28.4,242.2,242.2,0,0,0,9.8-29.5,10.8,10.8,0,0,0,.5-2.5V465a20.3,20.3,0,0,0-1.8-8.2,26.4,26.4,0,0,0-4.7-7.5,25.6,25.6,0,0,0-6.5-5.4,13.3,13.3,0,0,0-6.9-2c-2.7,0-5.4,1.3-8,4s-4.4,6.9-5.5,12.8-2.9,12.9-4.8,20a100.5,100.5,0,0,1-7.5,19.7,56.5,56.5,0,0,1-10.7,15.2,20.8,20.8,0,0,1-14.8,6.1c-5.9,0-10.6-2.1-14-6.1s-5.3-10.7-5.3-19.9v-179l48.7-.2q26.1-.2,60-.9c2.4,0,4.6-1.4,6.5-4.2a32.9,32.9,0,0,0,4.6-9.8,63.7,63.7,0,0,0,2.2-11.7A42,42,0,0,0,1340.9,277.7ZM415.7,461.4a101.4,101.4,0,0,1-15.6-29.8,108.1,108.1,0,0,1-6-36.1c0-17.8,3.3-26.8,9.7-26.8,2.9,0,5.3,1.7,7,5.1a48.6,48.6,0,0,1,4.2,14,164.7,164.7,0,0,1,1.9,21.1c.3,8.2.4,17,.4,26.6A212.9,212.9,0,0,1,415.7,461.4Z" fill="none"/>
    </clipPath>
    <clipPath id="clip-path-2" transform="translate(-14.5 -121.3)">
      <path id="C" d="M212.7,257.1a116,116,0,0,1-18.2,19.6,129.3,129.3,0,0,1-21.8,15.5,125.4,125.4,0,0,1-23,10.2,71.6,71.6,0,0,1-22.1,3.7,50.3,50.3,0,0,1-9.9-.8,29,29,0,0,1-5.7-1.9,35,35,0,0,1-3.3-2,5,5,0,0,0-2.6-.8,3.3,3.3,0,0,0-2.6,1.6,15.7,15.7,0,0,0-2.1,4.3,33,33,0,0,0-1.2,5.8,44,44,0,0,0-.4,6.2c0,9.4,2.4,16.3,7.3,20.6a25.9,25.9,0,0,0,17.8,6.5,118.4,118.4,0,0,0,32.8-5,177.2,177.2,0,0,0,33.8-13.9,193.8,193.8,0,0,0,31.7-21.4,173.6,173.6,0,0,0,26.4-27.2,136.4,136.4,0,0,0,18-31.3,89.2,89.2,0,0,0,6.8-33.9c0-12.4-1.8-23.2-5.5-32.5a66.6,66.6,0,0,0-15.1-23.3A62.3,62.3,0,0,0,231.1,143a85,85,0,0,0-28.4-4.6A130.6,130.6,0,0,0,150,149a167.4,167.4,0,0,0-45,28.8,215.4,215.4,0,0,0-36.4,42.6,297.9,297.9,0,0,0-27.2,51.9,310.3,310.3,0,0,0-17,56.4,293.2,293.2,0,0,0-5.8,56.6c0,27.2,3,51.9,8.9,73.9S41.9,500.1,53,515.7a117.5,117.5,0,0,0,40.7,36c16,8.4,34.1,12.7,54.3,12.7a140,140,0,0,0,31.9-3.4,160.4,160.4,0,0,0,26.9-8.4,152.7,152.7,0,0,0,21.8-11,180.1,180.1,0,0,0,16.3-11.2,125.9,125.9,0,0,0,10.2-8.8l4.1-4.1a13,13,0,0,0,3.6-8.6,24.3,24.3,0,0,0-1.8-10.5,40,40,0,0,0-5.6-9.8,24.4,24.4,0,0,0-7.9-6.7,11.9,11.9,0,0,0-8.8-1.1c-3.1.7-5.8,3.1-8.2,7.1-.3.2-2.4,2.1-6,5.7s-9,7.4-15.8,11.6a144.4,144.4,0,0,1-24.5,11.4,93.5,93.5,0,0,1-32.3,5.3c-16.4,0-30.2-3.8-41.4-11.5a85.5,85.5,0,0,1-27.2-30.5c-6.9-12.7-11.9-27.2-15-43.7a274.6,274.6,0,0,1-4.7-50.9,250.5,250.5,0,0,1,4.6-47.2,291.2,291.2,0,0,1,12.9-47.2,262.2,262.2,0,0,1,20.4-43.1,186.2,186.2,0,0,1,26.7-35.5,120.8,120.8,0,0,1,31.6-24,76,76,0,0,1,35.7-8.8c6.4,0,11.9,1,16.3,3.1a33.8,33.8,0,0,1,10.6,7.9,29,29,0,0,1,5.8,10.2,34.1,34.1,0,0,1,1.8,10.5,63.6,63.6,0,0,1-4.7,23.6A95.1,95.1,0,0,1,212.7,257.1Z" fill="none"/>
    </clipPath>
  </defs>
  <title>Contact</title>
  <g id="ONTACT_MASK">
    <g clip-path="url(#clip-path)">
      <path id="ONTACT3" d="M370.5,322.5s-108,84-38,197c80,74,129-83,100-143s-59-14-53,20,28,141,119,95c35-36,24-179,24-179l2,262s-19-157,56-228,54,154,54,154-1,81,70,12c37-51,20-385,20-385s-40,529,72,390c32-47-3-179,177-184,0,0-237,7-123,196,58,35,89-40,74-165,0,0-17,277,85,135,0,0,0-95,65-159,51-33,61,75,61,75s-33-200-104,12c-8,195,150,69,150,69s29-151,14-369c0,0-31,415,27,413s85-83,84-121" transform="translate(-14.5 -121.3)" fill="none" stroke="#000" stroke-width="60"/>
      <path id="ONTACT2" d="M627.5,291.5s117,12,257,0" transform="translate(-14.5 -121.3)" fill="none" stroke="#000" stroke-width="60"/>
      <path id="ONTACT1" d="M1097.5,291.5s89,12,255,3" transform="translate(-14.5 -121.3)" fill="none" stroke="#000" stroke-width="60"/>
    </g>
  </g>
  <g id="C_MASK">
    <g clip-path="url(#clip-path-2)">
      <path id="C1" d="M87.5,322.5s173-2,160-116c-15.6-136.9-204,8-203,140-1,108,24,301,230,140" transform="translate(-14.5 -121.3)" fill="none" stroke="#000" stroke-width="60"/>
    </g>
  </g>
</svg>
