<svg id="Layer_1" data-name="Layer 1" xmlns="http://www.w3.org/2000/svg" xmlns:xlink="http://www.w3.org/1999/xlink" viewBox="0 0 1315.6 341.9">
  <defs>
    <clipPath id="clip-path" transform="translate(-30.7 -180.4)">
      <path id="DOT" d="M979.9,283.7a25.6,25.6,0,0,0,7.8,5.5,23.9,23.9,0,0,0,9.6,2,25.5,25.5,0,0,0,10-2,24.9,24.9,0,0,0,7.9-5.5,23.6,23.6,0,0,0,5.2-7.9,24,24,0,0,0,1.9-9.7,25.9,25.9,0,0,0-1.9-10.1,23.6,23.6,0,0,0-5.2-7.9,24.1,24.1,0,0,0-7.9-5.2,25.4,25.4,0,0,0-10-1.9,23.8,23.8,0,0,0-9.6,1.9,24.8,24.8,0,0,0-7.8,5.2,25.5,25.5,0,0,0-5.3,7.9,24.3,24.3,0,0,0-2,10.1,22.5,22.5,0,0,0,2,9.7A25.5,25.5,0,0,0,979.9,283.7Z" fill="none"/>
    </clipPath>
    <clipPath id="clip-path-2" transform="translate(-30.7 -180.4)">
      <path id="USTOMISE" d="M1322.1,416.3a15.5,15.5,0,0,0-7.9-5.1,11.4,11.4,0,0,0-8.8,1.1c-2.9,1.5-4.8,4.6-5.7,9.1a107.2,107.2,0,0,1-5.4,18.7,62.1,62.1,0,0,1-9.6,16.6,44.4,44.4,0,0,1-14.5,12q-8.7,4.5-20.7,4.5a46.1,46.1,0,0,1-14.1-2,42,42,0,0,1-10.8-5.4,34.2,34.2,0,0,1-7.9-8.2,43,43,0,0,1-5.3-9.9,83.3,83.3,0,0,0,26.2-12.9,89,89,0,0,0,19-19.3,82.2,82.2,0,0,0,11.7-22.8,75.6,75.6,0,0,0,3.9-23.5,52.9,52.9,0,0,0-2.5-16.8,38.5,38.5,0,0,0-7.3-13.2,34.6,34.6,0,0,0-11.8-8.5,38.6,38.6,0,0,0-15.5-3,43.7,43.7,0,0,0-23.1,6.9,70.1,70.1,0,0,0-20.1,19.2,101.8,101.8,0,0,0-14.2,29,117.3,117.3,0,0,0-5.5,36.2,105.9,105.9,0,0,0,1.1,15.3,42.3,42.3,0,0,1-2.2,4.2,36.3,36.3,0,0,1-6.8,8.5,43.7,43.7,0,0,1-9.6,6.9,42.9,42.9,0,0,1-12.8,4.4,47.8,47.8,0,0,0,1.6-7.2,62.7,62.7,0,0,0,.5-7.4,70.2,70.2,0,0,0-4.3-25.5,108.1,108.1,0,0,0-10.7-20.5c-4.3-6.4-9.1-12.9-14.3-19.4a162.6,162.6,0,0,1-15.1-22.7,22.1,22.1,0,0,1,1.7-3.6c1-1.9,2.1-4.1,3.3-6.7s2.3-5.5,3.3-8.5a28.5,28.5,0,0,0,1.5-9.1c0-5.6-1.2-10.1-3.7-13.5s-6.2-5-11.1-5c-2.8,0-6.2,1.1-10.2,3.1a63.8,63.8,0,0,0-11.4,8,54.5,54.5,0,0,0-9.4,10.5c-2.6,3.8-3.9,7.5-3.9,10.9a28.1,28.1,0,0,0,1.8,10,51.5,51.5,0,0,0,4.8,9.3c-3.8,11-7.5,22-11.4,33a279.3,279.3,0,0,0-8.7,30.2v.3a22.1,22.1,0,0,0-1.2,4.3c-.9,4.2-2,8.7-3.3,13.4h-1.3c-2.3,0-4.5,1.2-6.6,3.7a19.4,19.4,0,0,0-4.3,9.5,24.5,24.5,0,0,0,.6,11.3l-2,2.2a15.1,15.1,0,0,1-10.6,4.4,8,8,0,0,1-6.2-2.4,14.9,14.9,0,0,1-3.2-5.6,24.8,24.8,0,0,1-1.2-6.4,42.3,42.3,0,0,1-.2-4.5V350a16.8,16.8,0,0,0-5.9-12.8c-4-3.5-9.4-5.3-16.2-5.3a14.3,14.3,0,0,0-7.6,1.9c-2.2,1.3-3.2,2.9-3.2,4.9a14.5,14.5,0,0,0,.9,4.8,29,29,0,0,1,.9,8.5v71.2a26.6,26.6,0,0,0-1.6,5.6c-1,4.6-2.2,9.4-3.6,14.6a86.8,86.8,0,0,1-5.6,14.3,40.7,40.7,0,0,1-7.8,11.1,15,15,0,0,1-10.7,4.4,7.6,7.6,0,0,1-6.1-2.4,16.4,16.4,0,0,1-3.2-5.6,37.8,37.8,0,0,1-1.2-6.4c-.1-2-.2-3.5-.2-4.5V369.2a72.4,72.4,0,0,0-1.4-14.4,40.5,40.5,0,0,0-5-13.5,27.7,27.7,0,0,0-10-9.8c-4.3-2.5-9.8-3.8-16.5-3.8a29.3,29.3,0,0,0-13.1,3,49.2,49.2,0,0,0-11.6,8.2,73.3,73.3,0,0,0-10,12.3,110.4,110.4,0,0,0-8.4,15.2,94.3,94.3,0,0,0-2-13.7,41.6,41.6,0,0,0-5.3-12.6,28.6,28.6,0,0,0-9.9-9c-4.1-2.3-9.2-3.4-15.3-3.4a29.7,29.7,0,0,0-13.2,3,44.7,44.7,0,0,0-11.5,8.3,76.4,76.4,0,0,0-10.1,12.6,129.2,129.2,0,0,0-8.8,15.6V350a16.8,16.8,0,0,0-5.9-12.8c-3.9-3.5-9.3-5.3-16.2-5.3a14.5,14.5,0,0,0-7.6,1.9c-2.1,1.3-3.2,2.9-3.2,4.9a14.5,14.5,0,0,0,.9,4.8,29,29,0,0,1,.9,8.5v68.2c-.1.3-.1.5-.2.8a56,56,0,0,1-3.2,11.5,33.1,33.1,0,0,1-5.8,9.4,26.6,26.6,0,0,1-8.7,6.4,28,28,0,0,1-11.8,2.4h-4.1a16.9,16.9,0,0,1-4.1-.9,136.7,136.7,0,0,0,4.4-21.7,189.1,189.1,0,0,0,1.4-22.6,131.5,131.5,0,0,0-2.7-27.5,85.1,85.1,0,0,0-7.5-21.9,44.9,44.9,0,0,0-11.3-14.5c-4.3-3.4-8.8-5.2-13.6-5.2a26.9,26.9,0,0,0-14.5,3.9,32.7,32.7,0,0,0-10.3,10.6,52.7,52.7,0,0,0-6.2,15.3,78.6,78.6,0,0,0-2.1,18.4,112.4,112.4,0,0,0,7.5,41.4,78.1,78.1,0,0,0,22,31.6,36.5,36.5,0,0,1-9.8,11.4c-3.8,2.9-8.6,4.3-14.5,4.3A21.7,21.7,0,0,1,646,470a29.8,29.8,0,0,1-9.5-9.8,53,53,0,0,1-6.4-16.1,100.5,100.5,0,0,1-2.3-22.7,149,149,0,0,1,2-26.1,103.7,103.7,0,0,1,4.9-18.3,70.4,70.4,0,0,1,6.2-12.6l5.8-8.8a10.4,10.4,0,0,0,4.7-7.4,22.4,22.4,0,0,0-.8-9.6,21.2,21.2,0,0,0-4.8-8.2c-2.3-2.3-4.7-3.5-7.4-3.5s-5.7,2.2-10.3,6.6-9.3,10.8-14,19.2a149.7,149.7,0,0,0-12.3,30.5c-3.5,12-5.3,25.5-5.3,40.6a121,121,0,0,0,1,16.1l-.9,3.5a78.4,78.4,0,0,1-5.4,14.3,40.9,40.9,0,0,1-7.9,11.1,15,15,0,0,1-10.7,4.4,12.8,12.8,0,0,1-10.2-4.4c-2.6-3-3.8-7.8-3.8-14.5V324.1H594c12.6-.1,27.2-.3,43.6-.7,1.8,0,3.3-1,4.7-3a26.7,26.7,0,0,0,3.4-7.2,45.7,45.7,0,0,0,1.6-8.5,35.5,35.5,0,0,0-.1-7.4c-.4-2-1.1-3.3-2.3-3.8s-2.6.2-4.5,2.2c-14,.7-28,1.1-42,1.4s-27.3.4-39.8.4V225.3a16.4,16.4,0,0,0-6-12.7c-3.9-3.5-9.3-5.3-16.1-5.3l-4.5.3a28.5,28.5,0,0,0-4.4.9,13.9,13.9,0,0,0-3.2,1.4,2.3,2.3,0,0,0-1.2,2,3.4,3.4,0,0,0,.7,1.9,8.9,8.9,0,0,1,1.4,2.4,19.3,19.3,0,0,1,1.4,4.1,27.3,27.3,0,0,1,.7,7.1V297l-15.2-.3c-4.6-.1-8.4-.2-11.6-.5s-7.2-.3-10.3-.6a5.1,5.1,0,0,0-5.5,4.3,18.2,18.2,0,0,0,.4,9.5,25.1,25.1,0,0,0,5.2,9.6c2.5,2.8,5.3,4.3,8.5,4.3l7.5.4,8.9.3h12.1V424.2l-2,4.6a57,57,0,0,1-4.5,9.7,39.1,39.1,0,0,1-6.8,8.5,46.2,46.2,0,0,1-9.6,6.9,43.9,43.9,0,0,1-12.8,4.4,38.2,38.2,0,0,0,1.5-7.2,46.8,46.8,0,0,0,.5-7.4q0-14.7-4.2-25.5a108.1,108.1,0,0,0-10.7-20.5c-4.4-6.4-9.2-12.9-14.4-19.4a171.8,171.8,0,0,1-15-22.7,22.1,22.1,0,0,1,1.7-3.6c1-1.9,2.1-4.1,3.3-6.7s2.3-5.5,3.3-8.5a28.5,28.5,0,0,0,1.5-9.1c0-5.6-1.2-10.1-3.7-13.5s-6.2-5-11.1-5c-2.8,0-6.2,1.1-10.2,3.1a63.8,63.8,0,0,0-11.4,8,54.5,54.5,0,0,0-9.4,10.5c-2.7,3.8-4,7.5-4,10.9a28.1,28.1,0,0,0,1.8,10,59.6,59.6,0,0,0,4.9,9.3l-11.4,33a279.3,279.3,0,0,0-8.7,30.2v.2a25.5,25.5,0,0,0-1.2,4.4c-.9,4.2-1.9,8.7-3.2,13.4h-1.4c-2.3,0-4.5,1.2-6.6,3.7a20.4,20.4,0,0,0-4.4,9.5,27,27,0,0,0,.7,11.5,18,18,0,0,1-1.9,2,15,15,0,0,1-10.7,4.4,7.8,7.8,0,0,1-6.2-2.4,13.7,13.7,0,0,1-3.2-5.6,24.8,24.8,0,0,1-1.2-6.4,42.3,42.3,0,0,1-.2-4.5V350c0-5-2-9.2-6-12.8s-9.3-5.3-16.1-5.3a34,34,0,0,0-4.5.3,25,25,0,0,0-4.3.9,13,13,0,0,0-3.3,1.4,2.4,2.4,0,0,0-1.2,1.8,3.8,3.8,0,0,0,.7,2.1,8.9,8.9,0,0,1,1.4,2.4,24.3,24.3,0,0,1,1.5,4.2,30.8,30.8,0,0,1,.7,7v66.2a137.4,137.4,0,0,1-5.1,20.8,92.2,92.2,0,0,1-7.5,17.6,46.7,46.7,0,0,1-9.6,12.4,17.3,17.3,0,0,1-11.6,4.6c-6,0-10.6-2.9-13.9-8.6s-4.9-14.3-4.9-25.5c0-8.6.2-16.3.8-23.2s1.3-13.5,2.3-19.9,2.2-12.6,3.7-18.9,3.1-13.3,5-20.9a36.2,36.2,0,0,1,2.5-6.2,22.6,22.6,0,0,0,2.4-7.5,7.5,7.5,0,0,0-1.7-6.3c-1.4-1.8-4.7-2.7-9.8-2.7s-9.5.5-12.1,1.4a13.8,13.8,0,0,0-5.8,3.6,11.6,11.6,0,0,0-2.3,4.9,25.5,25.5,0,0,1-1.5,5.4c-2.8,9.6-5.3,19.6-7.4,29.9q-2.8,13.2-5.1,29.7a224.7,224.7,0,0,0-2.3,32.7,92.8,92.8,0,0,0,2.9,24.4,55,55,0,0,0,8.5,18.6,38.6,38.6,0,0,0,13.8,12,39.2,39.2,0,0,0,18.3,4.2,36.7,36.7,0,0,0,23.7-8.2,76.3,76.3,0,0,0,17.5-21.3,34.6,34.6,0,0,0,3.8,11.5,32.4,32.4,0,0,0,7.1,9.3,32.7,32.7,0,0,0,10,6.1,36.9,36.9,0,0,0,12.8,2.2,42.9,42.9,0,0,0,23.1-6.2,68.9,68.9,0,0,0,10.4-8.3,36.4,36.4,0,0,0,4.8,3.2,76.7,76.7,0,0,0,11.1,5.6,102.3,102.3,0,0,0,12.9,4.1,61,61,0,0,0,35.9-2.5,63.9,63.9,0,0,0,17.6-10.6c12.8-.9,23.6-3.1,32.3-6.7a87,87,0,0,0,20.4-11.4,48,48,0,0,0,1.9,8.1,35.5,35.5,0,0,0,7.8,14.1,29.4,29.4,0,0,0,11.9,8.1,46.1,46.1,0,0,0,15.2,2.5,42.9,42.9,0,0,0,23.1-6.2,64.7,64.7,0,0,0,16.9-15.7c1.2-1.5,2.3-3.1,3.3-4.6l2.4,3.7a55.4,55.4,0,0,0,18.7,16.7c7.5,4,16.5,6.1,26.9,6.1s21.7-2.7,29.7-8.1a65.4,65.4,0,0,0,19.7-21.4,42.4,42.4,0,0,0,9.5,2.2,87.4,87.4,0,0,0,10.5.6,53.5,53.5,0,0,0,18.9-3.2,59.5,59.5,0,0,0,7.6-3.7v15.5c0,3.9.6,7,1.9,9.4a15.8,15.8,0,0,0,4.8,5.4,20.6,20.6,0,0,0,6.5,2.6,39,39,0,0,0,6.5.7,9.8,9.8,0,0,0,10.1-5.9,13.2,13.2,0,0,0,1.2-5.7c.1-2,.1-4.1.1-6.1v-60a101.6,101.6,0,0,1,5.3-24.4,124.7,124.7,0,0,1,10.1-21.7,80.9,80.9,0,0,1,11.6-15.7c4-4,7.3-6,10.1-6a5,5,0,0,1,4.2,1.9,15.1,15.1,0,0,1,2.3,5.1,48.4,48.4,0,0,1,1.1,7.4c.2,2.8.3,5.9.3,9.1V482.2c0,3.9.6,7,1.9,9.4a15.8,15.8,0,0,0,4.8,5.4,20.1,20.1,0,0,0,6.4,2.6,40.1,40.1,0,0,0,6.5.7,11.8,11.8,0,0,0,6.8-1.7,12.4,12.4,0,0,0,3.4-4.2,17,17,0,0,0,1.2-5.7c0-2,.1-4.1.1-6.1v-60a88.8,88.8,0,0,1,5.2-24.4,132.4,132.4,0,0,1,10-21.7,77.2,77.2,0,0,1,11.7-15.7q6-6,10.2-6a4.9,4.9,0,0,1,4.1,1.9,13.4,13.4,0,0,1,2.3,5.1,32.3,32.3,0,0,1,1,7.4c.2,2.8.2,5.9.2,9.1v83.5a48.2,48.2,0,0,0,2.3,14.8,35.6,35.6,0,0,0,6.9,12.2,34.2,34.2,0,0,0,10.8,8.4,33.7,33.7,0,0,0,14.6,3.1c8.8,0,16.5-2.1,23-6.2a61.6,61.6,0,0,0,16.7-15.5,34.3,34.3,0,0,0,6,10.2,33.1,33.1,0,0,0,10.8,8.4,34.5,34.5,0,0,0,14.7,3.1,42.9,42.9,0,0,0,23.1-6.2,64.2,64.2,0,0,0,10.4-8.3,36.4,36.4,0,0,0,4.8,3.2,78,78,0,0,0,11.2,5.6,95.9,95.9,0,0,0,12.8,4.1,61,61,0,0,0,35.9-2.5,63.9,63.9,0,0,0,17.6-10.6c12.8-.9,23.6-3.1,32.3-6.7a87.7,87.7,0,0,0,22.7-13.1l2.4-2.2a70.6,70.6,0,0,0,61.8,36.7,87.4,87.4,0,0,0,26.7-3.8,75.5,75.5,0,0,0,20.3-10.1,64.8,64.8,0,0,0,14.5-14.1,92.4,92.4,0,0,0,15.5-32.4c1.2-5.4,2.1-10.1,2.7-14.3A11.8,11.8,0,0,0,1322.1,416.3ZM462.6,455.1a42.5,42.5,0,0,1-6.2,10.7,45.7,45.7,0,0,1-11.5-1.7,100.4,100.4,0,0,1-13-4.5q-6.6-2.7-13.2-5.7l-5-2.3c1.9-5.3,3.6-10.4,5-15.3a10.1,10.1,0,0,0,.4-1.8h0l.6-1.9c2.7-9.8,5.2-18.5,7.6-26.2s5.2-15.5,8.4-23.4c3.6,3.6,7.2,7.4,10.8,11.5a96.1,96.1,0,0,1,9.5,13.2,69.7,69.7,0,0,1,6.8,15.2,57.4,57.4,0,0,1,2.6,17.9A35.9,35.9,0,0,1,462.6,455.1Zm226.8-24.3a73.7,73.7,0,0,1-11.3-21.6,79.3,79.3,0,0,1-4.4-26.3c0-13,2.4-19.5,7.1-19.5,2.1,0,3.8,1.3,5.1,3.7a34.6,34.6,0,0,1,3,10.2,119.9,119.9,0,0,1,1.4,15.3c.2,6,.3,12.4.3,19.4A154.4,154.4,0,0,1,689.4,430.8Zm423.4,24.3a39.7,39.7,0,0,1-6.2,10.7,45.7,45.7,0,0,1-11.5-1.7,112,112,0,0,1-13-4.5q-6.6-2.7-13.2-5.7l-5-2.3c2-5.3,3.6-10.4,5-15.3l.3-1.6c.2-.7.5-1.4.7-2.2,2.7-9.8,5.2-18.5,7.6-26.2s5.2-15.5,8.5-23.4c3.6,3.6,7.1,7.4,10.7,11.5a96.1,96.1,0,0,1,9.5,13.2,69.7,69.7,0,0,1,6.8,15.2,57.4,57.4,0,0,1,2.7,17.9A36,36,0,0,1,1112.8,455.1Zm93.4-33.7a21.7,21.7,0,0,1-.2-3.6,77,77,0,0,1,.2-10.5,113.1,113.1,0,0,1,1.6-13.4,132.7,132.7,0,0,1,3.1-13.9,67.8,67.8,0,0,1,4.8-12.5,31.3,31.3,0,0,1,6.8-8.9,13.1,13.1,0,0,1,9-3.4c2.6,0,4.7,1.3,6.3,3.8s2.3,6.1,2.3,10.6a65.4,65.4,0,0,1-2.4,17.8,62.1,62.1,0,0,1-6.9,15.8,54.4,54.4,0,0,1-10.6,12.8,58.3,58.3,0,0,1-13.8,9.2C1206.4,423.9,1206.3,422.6,1206.2,421.4Z" fill="none"/>
    </clipPath>
    <clipPath id="clip-path-3" transform="translate(-30.7 -180.4)">
      <path id="C" d="M186.8,282.2a85.2,85.2,0,0,1-13.3,14.3,98.8,98.8,0,0,1-15.8,11.2,95.2,95.2,0,0,1-16.8,7.5,52.1,52.1,0,0,1-16,2.7,34.9,34.9,0,0,1-7.3-.6,19.3,19.3,0,0,1-4.1-1.4l-2.4-1.5a3.3,3.3,0,0,0-1.9-.6,2.4,2.4,0,0,0-1.9,1.2,11.9,11.9,0,0,0-1.5,3.2,22,22,0,0,0-.9,4.2,34,34,0,0,0-.3,4.5c0,6.8,1.8,11.8,5.3,14.9a18.8,18.8,0,0,0,13,4.8,82.2,82.2,0,0,0,23.8-3.7,122.7,122.7,0,0,0,24.6-10.1,139.2,139.2,0,0,0,23.1-15.5,127.9,127.9,0,0,0,19.2-19.8,100.4,100.4,0,0,0,13.1-22.8,64,64,0,0,0,4.9-24.7c0-8.9-1.3-16.8-4-23.6a48.8,48.8,0,0,0-10.9-16.9,42.9,42.9,0,0,0-16.6-10.2,60.6,60.6,0,0,0-20.6-3.5,94.8,94.8,0,0,0-38.4,7.8,120.5,120.5,0,0,0-32.7,20.9,159.9,159.9,0,0,0-26.5,31,225.9,225.9,0,0,0-19.7,37.8,220,220,0,0,0-12.4,41,211,211,0,0,0-4.2,41.2q0,29.7,6.4,53.7t18.6,41.1a85.1,85.1,0,0,0,29.6,26.2c11.6,6.1,24.8,9.2,39.5,9.2a106.6,106.6,0,0,0,23.2-2.4,122.2,122.2,0,0,0,19.6-6.1,116.3,116.3,0,0,0,15.8-8.1,101.4,101.4,0,0,0,11.9-8.1c3.2-2.5,5.6-4.7,7.4-6.4l3-3a9,9,0,0,0,2.6-6.2,18.9,18.9,0,0,0-1.3-7.7,29.8,29.8,0,0,0-4.1-7.1,19.6,19.6,0,0,0-5.7-4.9,9.2,9.2,0,0,0-6.5-.8c-2.2.5-4.1,2.3-5.9,5.2l-4.4,4.1a73,73,0,0,1-11.4,8.5A107.6,107.6,0,0,1,166,471a68.9,68.9,0,0,1-23.5,3.8c-11.9,0-21.9-2.8-30.1-8.3a63.2,63.2,0,0,1-19.7-22.2c-5.1-9.2-8.7-19.8-11-31.8a195.9,195.9,0,0,1-3.4-37,187.8,187.8,0,0,1,3.3-34.4,212.4,212.4,0,0,1,9.5-34.3,184.4,184.4,0,0,1,14.8-31.4,140.3,140.3,0,0,1,19.4-25.8,89.5,89.5,0,0,1,23-17.4,55,55,0,0,1,25.9-6.5,26.6,26.6,0,0,1,11.9,2.4A21.8,21.8,0,0,1,198,241.2a23.8,23.8,0,0,1,1.3,7.6,45.4,45.4,0,0,1-3.4,17.2A72.1,72.1,0,0,1,186.8,282.2Z" fill="none"/>
    </clipPath>
  </defs>
  <title>Customise</title>
  <g id="DOT_MASK">
    <g clip-path="url(#clip-path)">
      <line id="DOT1" x1="928.8" y1="86.1" x2="1003.8" y2="86.1" fill="none" stroke="#EB008B" stroke-width="60"/>
    </g>
  </g>
  <g id="USTOMISE_MASK">
    <g clip-path="url(#clip-path-2)">
      <path id="USTOMISE3" d="M608.5,434.5s31,90,78,36-1-173-21-101c0,0-8,105,70,88,34-18,37-33,28-138l4,193s-17-114,35-162,43,67,43,162c0,0-21-145,55-169,37-4,1,107,33,144,47,18,70-103,57-164,0,0-18,209,41,155,38-44,74-195,52-149-10,33,27,56,37,76,29,22-7,148-96,44,0,0,108,84,223-54,43-84-67-72-58,20s112,108,127-13" transform="translate(-30.7 -180.4)" fill="none" stroke="#EB008B" stroke-width="60"/>
      <path id="USTOMISE2" d="M470.5,307.5s85,12,188,0" transform="translate(-30.7 -180.4)" fill="none" stroke="#EB008B" stroke-width="60"/>
      <path id="USTOMISE1" d="M278.5,316.5s-68,229,33,155c45-13,28-122,24-155,0,0-13,258,60,149,0,0,67-182,34-133-5,18,9,40,36,68s16,136-97,57c0,0,119,50,172-20,13-21,0-242,0-242s-29,399,58,270c19-35,4-92,55-141" transform="translate(-30.7 -180.4)" fill="none" stroke="#EB008B" stroke-width="60"/>
    </g>
  </g>
  <g id="C_MASK">
    <g clip-path="url(#clip-path-3)">
      <path id="C1" d="M94.5,329.5s126,11,116-97c-60-75-165,57-148,160,16.4,99.3,56,135,165,53" transform="translate(-30.7 -180.4)" fill="none" stroke="#EB008B" stroke-width="60"/>
    </g>
  </g>
</svg>
