<svg id="Layer_1" data-name="Layer 1" xmlns="http://www.w3.org/2000/svg" viewBox="0 0 57 94">
  <title>extensions-icon_square</title>
  <path d="M59.4,59.7a22.8,22.8,0,0,0-1.6-7.4c-3.9-9.4-14.2-16.2-26.4-16.2S9,42.9,5.1,52.3a20.4,20.4,0,0,0-1.6,7.4,4.1,4.1,0,0,0,0,1.8c.1,2.6.5,29.3,1.4,31.6l.2-31.6h0V59.7c.5-12.1,12.2-21.9,26.3-21.9s25.8,9.8,26.4,21.9v1.8h0V92.1c1-2.3,1.4-28,1.5-30.6V59.7Z" transform="translate(-2.9 -1.6)" stroke="#000" stroke-miterlimit="10"/>
  <g>
    <path d="M30.8,79.1A14.9,14.9,0,0,1,15.9,64.3V9.9a6.8,6.8,0,0,1,6.8-6.8H40.2a6.7,6.7,0,0,1,6.7,6.8V63A16.1,16.1,0,0,1,30.8,79.1Z" transform="translate(-2.9 -1.6)" fill="#fff"/>
    <path d="M40.2,4.6a5.2,5.2,0,0,1,5.2,5.3V63A14.6,14.6,0,0,1,30.8,77.6,13.4,13.4,0,0,1,17.4,64.3V9.9a5.3,5.3,0,0,1,5.3-5.3H40.2m0-3H22.7a8.3,8.3,0,0,0-8.3,8.3V64.3A16.4,16.4,0,0,0,30.8,80.6,17.6,17.6,0,0,0,48.4,63V9.9a8.3,8.3,0,0,0-8.2-8.3Z" transform="translate(-2.9 -1.6)"/>
  </g>
</svg>
